<?xml version="1.0" encoding="UTF-8" standalone="no"?>
<!DOCTYPE svg PUBLIC "-//W3C//DTD SVG 1.1//EN"
 "http://www.w3.org/Graphics/SVG/1.1/DTD/svg11.dtd">
<!-- Generated by graphviz version 2.40.1 (20161225.0304)
 -->
<!-- Title: dependencies Pages: 1 -->
<svg width="655pt" height="284pt"
 viewBox="0.00 0.00 655.00 284.00" xmlns="http://www.w3.org/2000/svg" xmlns:xlink="http://www.w3.org/1999/xlink">
<g id="graph0" class="graph" transform="scale(1 1) rotate(0) translate(4 280)">
<title>dependencies</title>
<polygon fill="#ffffff" stroke="transparent" points="-4,4 -4,-280 651,-280 651,4 -4,4"/>
<text text-anchor="start" x="302.5091" y="-42.4" font-family="sans-serif" font-weight="bold" font-size="14.00" fill="#000000">Legend</text>
<polygon fill="#ffffb3" stroke="transparent" points="89.5,-10 89.5,-30 109.5,-30 109.5,-10 89.5,-10"/>
<text text-anchor="start" x="113.129" y="-15.4" font-family="sans-serif" font-size="14.00" fill="#000000"> &#160;Declarations</text>
<polygon fill="#8dd3c7" stroke="transparent" points="202.5,-10 202.5,-30 222.5,-30 222.5,-10 202.5,-10"/>
<text text-anchor="start" x="226.2251" y="-15.4" font-family="sans-serif" font-size="14.00" fill="#000000"> &#160;Module</text>
<polygon fill="#80b1d3" stroke="transparent" points="288.5,-10 288.5,-30 308.5,-30 308.5,-10 288.5,-10"/>
<text text-anchor="start" x="312.2812" y="-15.4" font-family="sans-serif" font-size="14.00" fill="#000000"> &#160;Bootstrap</text>
<polygon fill="#fdb462" stroke="transparent" points="385.5,-10 385.5,-30 405.5,-30 405.5,-10 385.5,-10"/>
<text text-anchor="start" x="409.1732" y="-15.4" font-family="sans-serif" font-size="14.00" fill="#000000"> &#160;Providers</text>
<polygon fill="#fb8072" stroke="transparent" points="481.5,-10 481.5,-30 501.5,-30 501.5,-10 481.5,-10"/>
<text text-anchor="start" x="505.2258" y="-15.4" font-family="sans-serif" font-size="14.00" fill="#000000"> &#160;Exports</text>
<g id="clust1" class="cluster">
<title>cluster_SharedModule</title>
<polygon fill="none" stroke="#000000" stroke-dasharray="1,5" points="8,-70 8,-268 639,-268 639,-70 8,-70"/>
</g>
<g id="clust2" class="cluster">
<title>cluster_SharedModule_declarations</title>
<polygon fill="none" stroke="#000000" points="286,-78 286,-130 631,-130 631,-78 286,-78"/>
</g>
<g id="clust6" class="cluster">
<title>cluster_SharedModule_imports</title>
<polygon fill="none" stroke="#000000" points="168,-78 168,-130 278,-130 278,-78 168,-78"/>
</g>
<g id="clust7" class="cluster">
<title>cluster_SharedModule_exports</title>
<polygon fill="none" stroke="#000000" points="108,-208 108,-260 579,-260 579,-208 108,-208"/>
</g>
<g id="clust9" class="cluster">
<title>cluster_SharedModule_providers</title>
<polygon fill="none" stroke="#000000" points="16,-78 16,-130 160,-130 160,-78 16,-78"/>
</g>
<!-- ...DIRECTIVES -->
<g id="node1" class="node">
<title>...DIRECTIVES</title>
<polygon fill="#ffffb3" stroke="#000000" points="623.1481,-122 514.8519,-122 514.8519,-86 623.1481,-86 623.1481,-122"/>
<text text-anchor="middle" x="569" y="-99.8" font-family="Times,serif" font-size="14.00" fill="#000000">...DIRECTIVES</text>
</g>
<!-- SharedModule -->
<g id="node4" class="node">
<title>SharedModule</title>
<polygon fill="#8dd3c7" stroke="#000000" points="404.4231,-187 401.4231,-191 380.4231,-191 377.4231,-187 305.5769,-187 305.5769,-151 404.4231,-151 404.4231,-187"/>
<text text-anchor="middle" x="355" y="-164.8" font-family="Times,serif" font-size="14.00" fill="#000000">SharedModule</text>
</g>
<!-- ...DIRECTIVES&#45;&gt;SharedModule -->
<g id="edge1" class="edge">
<title>...DIRECTIVES&#45;&gt;SharedModule</title>
<path fill="none" stroke="#000000" d="M542.875,-122.1061C542.875,-141.3391 542.875,-169 542.875,-169 542.875,-169 414.3619,-169 414.3619,-169"/>
<polygon fill="#000000" stroke="#000000" points="414.362,-165.5001 404.3619,-169 414.3619,-172.5001 414.362,-165.5001"/>
</g>
<!-- ...PIPES -->
<g id="node2" class="node">
<title>...PIPES</title>
<polygon fill="#ffffb3" stroke="#000000" points="496.561,-122 433.439,-122 433.439,-86 496.561,-86 496.561,-122"/>
<text text-anchor="middle" x="465" y="-99.8" font-family="Times,serif" font-size="14.00" fill="#000000">...PIPES</text>
</g>
<!-- ...PIPES&#45;&gt;SharedModule -->
<g id="edge2" class="edge">
<title>...PIPES&#45;&gt;SharedModule</title>
<path fill="none" stroke="#000000" d="M437.375,-122.027C437.375,-138.3976 437.375,-160 437.375,-160 437.375,-160 414.3446,-160 414.3446,-160"/>
<polygon fill="#000000" stroke="#000000" points="414.3446,-156.5001 404.3446,-160 414.3445,-163.5001 414.3446,-156.5001"/>
</g>
<!-- ...COMPONENTS -->
<g id="node3" class="node">
<title>...COMPONENTS</title>
<polygon fill="#ffffb3" stroke="#000000" points="415.8786,-122 294.1214,-122 294.1214,-86 415.8786,-86 415.8786,-122"/>
<text text-anchor="middle" x="355" y="-99.8" font-family="Times,serif" font-size="14.00" fill="#000000">...COMPONENTS</text>
</g>
<!-- ...COMPONENTS&#45;&gt;SharedModule -->
<g id="edge3" class="edge">
<title>...COMPONENTS&#45;&gt;SharedModule</title>
<path fill="none" stroke="#000000" d="M355,-122.1061C355,-122.1061 355,-140.991 355,-140.991"/>
<polygon fill="#000000" stroke="#000000" points="351.5001,-140.9909 355,-150.991 358.5001,-140.991 351.5001,-140.9909"/>
</g>
<!-- ...DIRECTIVES  -->
<g id="node6" class="node">
<title>...DIRECTIVES </title>
<polygon fill="#fb8072" stroke="#000000" points="570.6486,-252 459.3514,-252 459.3514,-216 570.6486,-216 570.6486,-252"/>
<text text-anchor="middle" x="515" y="-229.8" font-family="Times,serif" font-size="14.00" fill="#000000">...DIRECTIVES </text>
</g>
<!-- SharedModule&#45;&gt;...DIRECTIVES  -->
<g id="edge5" class="edge">
<title>SharedModule&#45;&gt;...DIRECTIVES </title>
<path fill="none" stroke="#000000" stroke-dasharray="5,2" d="M404.2612,-178C438.44,-178 477.8533,-178 477.8533,-178 477.8533,-178 477.8533,-205.973 477.8533,-205.973"/>
<polygon fill="#000000" stroke="#000000" points="474.3533,-205.973 477.8533,-215.973 481.3533,-205.973 474.3533,-205.973"/>
</g>
<!-- ...PIPES  -->
<g id="node7" class="node">
<title>...PIPES </title>
<polygon fill="#fb8072" stroke="#000000" points="441.0624,-252 374.9376,-252 374.9376,-216 441.0624,-216 441.0624,-252"/>
<text text-anchor="middle" x="408" y="-229.8" font-family="Times,serif" font-size="14.00" fill="#000000">...PIPES </text>
</g>
<!-- SharedModule&#45;&gt;...PIPES  -->
<g id="edge6" class="edge">
<title>SharedModule&#45;&gt;...PIPES </title>
<path fill="none" stroke="#000000" stroke-dasharray="5,2" d="M389.4653,-187.1061C389.4653,-187.1061 389.4653,-205.991 389.4653,-205.991"/>
<polygon fill="#000000" stroke="#000000" points="385.9654,-205.9909 389.4653,-215.991 392.9654,-205.991 385.9654,-205.9909"/>
</g>
<!-- ...COMPONENTS  -->
<g id="node8" class="node">
<title>...COMPONENTS </title>
<polygon fill="#fb8072" stroke="#000000" points="356.3781,-252 231.6219,-252 231.6219,-216 356.3781,-216 356.3781,-252"/>
<text text-anchor="middle" x="294" y="-229.8" font-family="Times,serif" font-size="14.00" fill="#000000">...COMPONENTS </text>
</g>
<!-- SharedModule&#45;&gt;...COMPONENTS  -->
<g id="edge7" class="edge">
<title>SharedModule&#45;&gt;...COMPONENTS </title>
<path fill="none" stroke="#000000" stroke-dasharray="5,2" d="M331.114,-187.1061C331.114,-187.1061 331.114,-205.991 331.114,-205.991"/>
<polygon fill="#000000" stroke="#000000" points="327.614,-205.9909 331.114,-215.991 334.614,-205.991 327.614,-205.9909"/>
</g>
<!-- ...MODULES  -->
<g id="node9" class="node">
<title>...MODULES </title>
<polygon fill="#fb8072" stroke="#000000" points="213.6528,-252 116.3472,-252 116.3472,-216 213.6528,-216 213.6528,-252"/>
<text text-anchor="middle" x="165" y="-229.8" font-family="Times,serif" font-size="14.00" fill="#000000">...MODULES </text>
</g>
<!-- SharedModule&#45;&gt;...MODULES  -->
<g id="edge8" class="edge">
<title>SharedModule&#45;&gt;...MODULES </title>
<path fill="none" stroke="#000000" stroke-dasharray="5,2" d="M305.6507,-178C258.6021,-178 194.875,-178 194.875,-178 194.875,-178 194.875,-205.973 194.875,-205.973"/>
<polygon fill="#000000" stroke="#000000" points="191.3751,-205.973 194.875,-215.973 198.3751,-205.973 191.3751,-205.973"/>
</g>
<!-- ...MODULES -->
<g id="node5" class="node">
<title>...MODULES</title>
<polygon fill="#8dd3c7" stroke="#000000" points="270.1523,-122 267.1523,-126 246.1523,-126 243.1523,-122 175.8477,-122 175.8477,-86 270.1523,-86 270.1523,-122"/>
<text text-anchor="middle" x="223" y="-99.8" font-family="Times,serif" font-size="14.00" fill="#000000">...MODULES</text>
</g>
<!-- ...MODULES&#45;&gt;SharedModule -->
<g id="edge4" class="edge">
<title>...MODULES&#45;&gt;SharedModule</title>
<path fill="none" stroke="#000000" d="M250.8186,-122.027C250.8186,-138.3976 250.8186,-160 250.8186,-160 250.8186,-160 295.6551,-160 295.6551,-160"/>
<polygon fill="#000000" stroke="#000000" points="295.6552,-163.5001 305.6551,-160 295.6551,-156.5001 295.6552,-163.5001"/>
</g>
<!-- ...SERVICES -->
<g id="node10" class="node">
<title>...SERVICES</title>
<ellipse fill="#fdb462" stroke="#000000" cx="88" cy="-104" rx="63.7627" ry="18"/>
<text text-anchor="middle" x="88" y="-99.8" font-family="Times,serif" font-size="14.00" fill="#000000">...SERVICES</text>
</g>
<!-- ...SERVICES&#45;&gt;SharedModule -->
<g id="edge9" class="edge">
<title>...SERVICES&#45;&gt;SharedModule</title>
<path fill="none" stroke="#000000" d="M134.0276,-116.5327C134.0276,-135.4209 134.0276,-169 134.0276,-169 134.0276,-169 295.6845,-169 295.6845,-169"/>
<polygon fill="#000000" stroke="#000000" points="295.6845,-172.5001 305.6845,-169 295.6845,-165.5001 295.6845,-172.5001"/>
</g>
</g>
</svg>
