<?xml version="1.0" encoding="UTF-8" standalone="no"?>
<!DOCTYPE svg PUBLIC "-//W3C//DTD SVG 1.1//EN"
 "http://www.w3.org/Graphics/SVG/1.1/DTD/svg11.dtd">
<!-- Generated by graphviz version 2.40.1 (20161225.0304)
 -->
<!-- Title: dependencies Pages: 1 -->
<svg width="548pt" height="284pt"
 viewBox="0.00 0.00 548.00 284.00" xmlns="http://www.w3.org/2000/svg" xmlns:xlink="http://www.w3.org/1999/xlink">
<g id="graph0" class="graph" transform="scale(1 1) rotate(0) translate(4 280)">
<title>dependencies</title>
<polygon fill="#ffffff" stroke="transparent" points="-4,4 -4,-280 544,-280 544,4 -4,4"/>
<text text-anchor="start" x="249.0091" y="-42.4" font-family="sans-serif" font-weight="bold" font-size="14.00" fill="#000000">Legend</text>
<polygon fill="#ffffb3" stroke="transparent" points="36,-10 36,-30 56,-30 56,-10 36,-10"/>
<text text-anchor="start" x="59.629" y="-15.4" font-family="sans-serif" font-size="14.00" fill="#000000"> &#160;Declarations</text>
<polygon fill="#8dd3c7" stroke="transparent" points="149,-10 149,-30 169,-30 169,-10 149,-10"/>
<text text-anchor="start" x="172.7251" y="-15.4" font-family="sans-serif" font-size="14.00" fill="#000000"> &#160;Module</text>
<polygon fill="#80b1d3" stroke="transparent" points="235,-10 235,-30 255,-30 255,-10 235,-10"/>
<text text-anchor="start" x="258.7812" y="-15.4" font-family="sans-serif" font-size="14.00" fill="#000000"> &#160;Bootstrap</text>
<polygon fill="#fdb462" stroke="transparent" points="332,-10 332,-30 352,-30 352,-10 332,-10"/>
<text text-anchor="start" x="355.6732" y="-15.4" font-family="sans-serif" font-size="14.00" fill="#000000"> &#160;Providers</text>
<polygon fill="#fb8072" stroke="transparent" points="428,-10 428,-30 448,-30 448,-10 428,-10"/>
<text text-anchor="start" x="451.7258" y="-15.4" font-family="sans-serif" font-size="14.00" fill="#000000"> &#160;Exports</text>
<g id="clust1" class="cluster">
<title>cluster_SharedModule</title>
<polygon fill="none" stroke="#000000" stroke-dasharray="1,5" points="8,-70 8,-268 532,-268 532,-70 8,-70"/>
</g>
<g id="clust2" class="cluster">
<title>cluster_SharedModule_declarations</title>
<polygon fill="none" stroke="#000000" points="174,-78 174,-130 524,-130 524,-78 174,-78"/>
</g>
<g id="clust6" class="cluster">
<title>cluster_SharedModule_exports</title>
<polygon fill="none" stroke="#000000" points="92,-208 92,-260 448,-260 448,-208 92,-208"/>
</g>
<g id="clust8" class="cluster">
<title>cluster_SharedModule_providers</title>
<polygon fill="none" stroke="#000000" points="16,-78 16,-130 166,-130 166,-78 16,-78"/>
</g>
<!-- ArticleListItemComponent -->
<g id="node1" class="node">
<title>ArticleListItemComponent</title>
<polygon fill="#ffffb3" stroke="#000000" points="515.6358,-122 348.3642,-122 348.3642,-86 515.6358,-86 515.6358,-122"/>
<text text-anchor="middle" x="432" y="-99.8" font-family="Times,serif" font-size="14.00" fill="#000000">ArticleListItemComponent</text>
</g>
<!-- SharedModule -->
<g id="node3" class="node">
<title>SharedModule</title>
<polygon fill="#8dd3c7" stroke="#000000" points="305.4231,-187 302.4231,-191 281.4231,-191 278.4231,-187 206.5769,-187 206.5769,-151 305.4231,-151 305.4231,-187"/>
<text text-anchor="middle" x="256" y="-164.8" font-family="Times,serif" font-size="14.00" fill="#000000">SharedModule</text>
</g>
<!-- ArticleListItemComponent&#45;&gt;SharedModule -->
<g id="edge1" class="edge">
<title>ArticleListItemComponent&#45;&gt;SharedModule</title>
<path fill="none" stroke="#000000" d="M393.875,-122.1061C393.875,-141.3391 393.875,-169 393.875,-169 393.875,-169 315.3866,-169 315.3866,-169"/>
<polygon fill="#000000" stroke="#000000" points="315.3866,-165.5001 305.3866,-169 315.3866,-172.5001 315.3866,-165.5001"/>
</g>
<!-- TopNavBarComponent -->
<g id="node2" class="node">
<title>TopNavBarComponent</title>
<polygon fill="#ffffb3" stroke="#000000" points="329.9186,-122 182.0814,-122 182.0814,-86 329.9186,-86 329.9186,-122"/>
<text text-anchor="middle" x="256" y="-99.8" font-family="Times,serif" font-size="14.00" fill="#000000">TopNavBarComponent</text>
</g>
<!-- TopNavBarComponent&#45;&gt;SharedModule -->
<g id="edge2" class="edge">
<title>TopNavBarComponent&#45;&gt;SharedModule</title>
<path fill="none" stroke="#000000" d="M256,-122.1061C256,-122.1061 256,-140.991 256,-140.991"/>
<polygon fill="#000000" stroke="#000000" points="252.5001,-140.9909 256,-150.991 259.5001,-140.991 252.5001,-140.9909"/>
</g>
<!-- ArticleListItemComponent  -->
<g id="node4" class="node">
<title>ArticleListItemComponent </title>
<polygon fill="#fb8072" stroke="#000000" points="439.6355,-252 268.3645,-252 268.3645,-216 439.6355,-216 439.6355,-252"/>
<text text-anchor="middle" x="354" y="-229.8" font-family="Times,serif" font-size="14.00" fill="#000000">ArticleListItemComponent </text>
</g>
<!-- SharedModule&#45;&gt;ArticleListItemComponent  -->
<g id="edge3" class="edge">
<title>SharedModule&#45;&gt;ArticleListItemComponent </title>
<path fill="none" stroke="#000000" stroke-dasharray="5,2" d="M286.8217,-187.1061C286.8217,-187.1061 286.8217,-205.991 286.8217,-205.991"/>
<polygon fill="#000000" stroke="#000000" points="283.3218,-205.9909 286.8217,-215.991 290.3218,-205.991 283.3218,-205.9909"/>
</g>
<!-- TopNavBarComponent  -->
<g id="node5" class="node">
<title>TopNavBarComponent </title>
<polygon fill="#fb8072" stroke="#000000" points="250.418,-252 99.582,-252 99.582,-216 250.418,-216 250.418,-252"/>
<text text-anchor="middle" x="175" y="-229.8" font-family="Times,serif" font-size="14.00" fill="#000000">TopNavBarComponent </text>
</g>
<!-- SharedModule&#45;&gt;TopNavBarComponent  -->
<g id="edge4" class="edge">
<title>SharedModule&#45;&gt;TopNavBarComponent </title>
<path fill="none" stroke="#000000" stroke-dasharray="5,2" d="M228.624,-187.1061C228.624,-187.1061 228.624,-205.991 228.624,-205.991"/>
<polygon fill="#000000" stroke="#000000" points="225.124,-205.9909 228.624,-215.991 232.124,-205.991 225.124,-205.9909"/>
</g>
<!-- ArticleService -->
<g id="node6" class="node">
<title>ArticleService</title>
<ellipse fill="#fdb462" stroke="#000000" cx="91" cy="-104" rx="66.6055" ry="18"/>
<text text-anchor="middle" x="91" y="-99.8" font-family="Times,serif" font-size="14.00" fill="#000000">ArticleService</text>
</g>
<!-- ArticleService&#45;&gt;SharedModule -->
<g id="edge5" class="edge">
<title>ArticleService&#45;&gt;SharedModule</title>
<path fill="none" stroke="#000000" d="M128.6717,-119.0757C128.6717,-138.2773 128.6717,-169 128.6717,-169 128.6717,-169 196.7716,-169 196.7716,-169"/>
<polygon fill="#000000" stroke="#000000" points="196.7716,-172.5001 206.7716,-169 196.7715,-165.5001 196.7716,-172.5001"/>
</g>
</g>
</svg>
