<?xml version="1.0" encoding="UTF-8" standalone="no"?>
<!DOCTYPE svg PUBLIC "-//W3C//DTD SVG 1.1//EN"
 "http://www.w3.org/Graphics/SVG/1.1/DTD/svg11.dtd">
<!-- Generated by graphviz version 2.40.1 (20161225.0304)
 -->
<!-- Title: dependencies Pages: 1 -->
<svg width="650pt" height="284pt"
 viewBox="0.00 0.00 650.00 284.00" xmlns="http://www.w3.org/2000/svg" xmlns:xlink="http://www.w3.org/1999/xlink">
<g id="graph0" class="graph" transform="scale(1 1) rotate(0) translate(4 280)">
<title>dependencies</title>
<polygon fill="#ffffff" stroke="transparent" points="-4,4 -4,-280 646,-280 646,4 -4,4"/>
<text text-anchor="start" x="300.0091" y="-42.4" font-family="sans-serif" font-weight="bold" font-size="14.00" fill="#000000">Legend</text>
<polygon fill="#ffffb3" stroke="transparent" points="87,-10 87,-30 107,-30 107,-10 87,-10"/>
<text text-anchor="start" x="110.629" y="-15.4" font-family="sans-serif" font-size="14.00" fill="#000000"> &#160;Declarations</text>
<polygon fill="#8dd3c7" stroke="transparent" points="200,-10 200,-30 220,-30 220,-10 200,-10"/>
<text text-anchor="start" x="223.7251" y="-15.4" font-family="sans-serif" font-size="14.00" fill="#000000"> &#160;Module</text>
<polygon fill="#80b1d3" stroke="transparent" points="286,-10 286,-30 306,-30 306,-10 286,-10"/>
<text text-anchor="start" x="309.7812" y="-15.4" font-family="sans-serif" font-size="14.00" fill="#000000"> &#160;Bootstrap</text>
<polygon fill="#fdb462" stroke="transparent" points="383,-10 383,-30 403,-30 403,-10 383,-10"/>
<text text-anchor="start" x="406.6732" y="-15.4" font-family="sans-serif" font-size="14.00" fill="#000000"> &#160;Providers</text>
<polygon fill="#fb8072" stroke="transparent" points="479,-10 479,-30 499,-30 499,-10 479,-10"/>
<text text-anchor="start" x="502.7258" y="-15.4" font-family="sans-serif" font-size="14.00" fill="#000000"> &#160;Exports</text>
<g id="clust1" class="cluster">
<title>cluster_ViewsModule</title>
<polygon fill="none" stroke="#000000" stroke-dasharray="1,5" points="8,-70 8,-268 634,-268 634,-70 8,-70"/>
</g>
<g id="clust2" class="cluster">
<title>cluster_ViewsModule_declarations</title>
<polygon fill="none" stroke="#000000" points="138,-78 138,-130 626,-130 626,-78 138,-78"/>
</g>
<g id="clust6" class="cluster">
<title>cluster_ViewsModule_imports</title>
<polygon fill="none" stroke="#000000" points="16,-78 16,-130 130,-130 130,-78 16,-78"/>
</g>
<g id="clust7" class="cluster">
<title>cluster_ViewsModule_exports</title>
<polygon fill="none" stroke="#000000" points="71,-208 71,-260 571,-260 571,-208 71,-208"/>
</g>
<!-- ArticleDetailComponent -->
<g id="node1" class="node">
<title>ArticleDetailComponent</title>
<polygon fill="#ffffb3" stroke="#000000" points="618.4087,-122 463.5913,-122 463.5913,-86 618.4087,-86 618.4087,-122"/>
<text text-anchor="middle" x="541" y="-99.8" font-family="Times,serif" font-size="14.00" fill="#000000">ArticleDetailComponent</text>
</g>
<!-- ViewsModule -->
<g id="node4" class="node">
<title>ViewsModule</title>
<polygon fill="#8dd3c7" stroke="#000000" points="361.8133,-187 358.8133,-191 337.8133,-191 334.8133,-187 266.1867,-187 266.1867,-151 361.8133,-151 361.8133,-187"/>
<text text-anchor="middle" x="314" y="-164.8" font-family="Times,serif" font-size="14.00" fill="#000000">ViewsModule</text>
</g>
<!-- ArticleDetailComponent&#45;&gt;ViewsModule -->
<g id="edge1" class="edge">
<title>ArticleDetailComponent&#45;&gt;ViewsModule</title>
<path fill="none" stroke="#000000" d="M513.375,-122.0225C513.375,-139.3734 513.375,-163 513.375,-163 513.375,-163 371.7553,-163 371.7553,-163"/>
<polygon fill="#000000" stroke="#000000" points="371.7553,-159.5001 361.7553,-163 371.7552,-166.5001 371.7553,-159.5001"/>
</g>
<!-- ArticleListComponent -->
<g id="node2" class="node">
<title>ArticleListComponent</title>
<polygon fill="#ffffb3" stroke="#000000" points="445.979,-122 304.021,-122 304.021,-86 445.979,-86 445.979,-122"/>
<text text-anchor="middle" x="375" y="-99.8" font-family="Times,serif" font-size="14.00" fill="#000000">ArticleListComponent</text>
</g>
<!-- ArticleListComponent&#45;&gt;ViewsModule -->
<g id="edge2" class="edge">
<title>ArticleListComponent&#45;&gt;ViewsModule</title>
<path fill="none" stroke="#000000" d="M332.8335,-122.1061C332.8335,-122.1061 332.8335,-140.991 332.8335,-140.991"/>
<polygon fill="#000000" stroke="#000000" points="329.3335,-140.9909 332.8335,-150.991 336.3335,-140.991 329.3335,-140.9909"/>
</g>
<!-- ContactUsComponent -->
<g id="node3" class="node">
<title>ContactUsComponent</title>
<polygon fill="#ffffb3" stroke="#000000" points="286.4313,-122 145.5687,-122 145.5687,-86 286.4313,-86 286.4313,-122"/>
<text text-anchor="middle" x="216" y="-99.8" font-family="Times,serif" font-size="14.00" fill="#000000">ContactUsComponent</text>
</g>
<!-- ContactUsComponent&#45;&gt;ViewsModule -->
<g id="edge3" class="edge">
<title>ContactUsComponent&#45;&gt;ViewsModule</title>
<path fill="none" stroke="#000000" d="M276.2795,-122.1061C276.2795,-122.1061 276.2795,-140.991 276.2795,-140.991"/>
<polygon fill="#000000" stroke="#000000" points="272.7795,-140.9909 276.2795,-150.991 279.7795,-140.991 272.7795,-140.9909"/>
</g>
<!-- ArticleDetailComponent  -->
<g id="node6" class="node">
<title>ArticleDetailComponent </title>
<polygon fill="#fb8072" stroke="#000000" points="562.9082,-252 405.0918,-252 405.0918,-216 562.9082,-216 562.9082,-252"/>
<text text-anchor="middle" x="484" y="-229.8" font-family="Times,serif" font-size="14.00" fill="#000000">ArticleDetailComponent </text>
</g>
<!-- ViewsModule&#45;&gt;ArticleDetailComponent  -->
<g id="edge5" class="edge">
<title>ViewsModule&#45;&gt;ArticleDetailComponent </title>
<path fill="none" stroke="#000000" stroke-dasharray="5,2" d="M361.9407,-175C392.1658,-175 425.5177,-175 425.5177,-175 425.5177,-175 425.5177,-205.9775 425.5177,-205.9775"/>
<polygon fill="#000000" stroke="#000000" points="422.0178,-205.9774 425.5177,-215.9775 429.0178,-205.9775 422.0178,-205.9774"/>
</g>
<!-- ArticleListComponent  -->
<g id="node7" class="node">
<title>ArticleListComponent </title>
<polygon fill="#fb8072" stroke="#000000" points="386.9798,-252 241.0202,-252 241.0202,-216 386.9798,-216 386.9798,-252"/>
<text text-anchor="middle" x="314" y="-229.8" font-family="Times,serif" font-size="14.00" fill="#000000">ArticleListComponent </text>
</g>
<!-- ViewsModule&#45;&gt;ArticleListComponent  -->
<g id="edge6" class="edge">
<title>ViewsModule&#45;&gt;ArticleListComponent </title>
<path fill="none" stroke="#000000" stroke-dasharray="5,2" d="M314,-187.1061C314,-187.1061 314,-205.991 314,-205.991"/>
<polygon fill="#000000" stroke="#000000" points="310.5001,-205.9909 314,-215.991 317.5001,-205.991 310.5001,-205.9909"/>
</g>
<!-- ContactUsComponent  -->
<g id="node8" class="node">
<title>ContactUsComponent </title>
<polygon fill="#fb8072" stroke="#000000" points="222.9306,-252 79.0694,-252 79.0694,-216 222.9306,-216 222.9306,-252"/>
<text text-anchor="middle" x="151" y="-229.8" font-family="Times,serif" font-size="14.00" fill="#000000">ContactUsComponent </text>
</g>
<!-- ViewsModule&#45;&gt;ContactUsComponent  -->
<g id="edge7" class="edge">
<title>ViewsModule&#45;&gt;ContactUsComponent </title>
<path fill="none" stroke="#000000" stroke-dasharray="5,2" d="M266.1007,-175C229.1754,-175 184.375,-175 184.375,-175 184.375,-175 184.375,-205.9775 184.375,-205.9775"/>
<polygon fill="#000000" stroke="#000000" points="180.8751,-205.9774 184.375,-215.9775 187.8751,-205.9775 180.8751,-205.9774"/>
</g>
<!-- SharedModule -->
<g id="node5" class="node">
<title>SharedModule</title>
<polygon fill="#8dd3c7" stroke="#000000" points="122.4231,-122 119.4231,-126 98.4231,-126 95.4231,-122 23.5769,-122 23.5769,-86 122.4231,-86 122.4231,-122"/>
<text text-anchor="middle" x="73" y="-99.8" font-family="Times,serif" font-size="14.00" fill="#000000">SharedModule</text>
</g>
<!-- SharedModule&#45;&gt;ViewsModule -->
<g id="edge4" class="edge">
<title>SharedModule&#45;&gt;ViewsModule</title>
<path fill="none" stroke="#000000" d="M100.6229,-122.0225C100.6229,-139.3734 100.6229,-163 100.6229,-163 100.6229,-163 256.114,-163 256.114,-163"/>
<polygon fill="#000000" stroke="#000000" points="256.114,-166.5001 266.114,-163 256.114,-159.5001 256.114,-166.5001"/>
</g>
</g>
</svg>
