<?xml version="1.0" encoding="UTF-8" standalone="no"?>
<!DOCTYPE svg PUBLIC "-//W3C//DTD SVG 1.1//EN"
 "http://www.w3.org/Graphics/SVG/1.1/DTD/svg11.dtd">
<!-- Generated by graphviz version 2.40.1 (20161225.0304)
 -->
<!-- Title: dependencies Pages: 1 -->
<svg width="894pt" height="284pt"
 viewBox="0.00 0.00 894.00 284.00" xmlns="http://www.w3.org/2000/svg" xmlns:xlink="http://www.w3.org/1999/xlink">
<g id="graph0" class="graph" transform="scale(1 1) rotate(0) translate(4 280)">
<title>dependencies</title>
<polygon fill="#ffffff" stroke="transparent" points="-4,4 -4,-280 890,-280 890,4 -4,4"/>
<text text-anchor="start" x="422.0091" y="-42.4" font-family="sans-serif" font-weight="bold" font-size="14.00" fill="#000000">Legend</text>
<polygon fill="#ffffb3" stroke="transparent" points="209,-10 209,-30 229,-30 229,-10 209,-10"/>
<text text-anchor="start" x="232.629" y="-15.4" font-family="sans-serif" font-size="14.00" fill="#000000"> &#160;Declarations</text>
<polygon fill="#8dd3c7" stroke="transparent" points="322,-10 322,-30 342,-30 342,-10 322,-10"/>
<text text-anchor="start" x="345.7251" y="-15.4" font-family="sans-serif" font-size="14.00" fill="#000000"> &#160;Module</text>
<polygon fill="#80b1d3" stroke="transparent" points="408,-10 408,-30 428,-30 428,-10 408,-10"/>
<text text-anchor="start" x="431.7812" y="-15.4" font-family="sans-serif" font-size="14.00" fill="#000000"> &#160;Bootstrap</text>
<polygon fill="#fdb462" stroke="transparent" points="505,-10 505,-30 525,-30 525,-10 505,-10"/>
<text text-anchor="start" x="528.6732" y="-15.4" font-family="sans-serif" font-size="14.00" fill="#000000"> &#160;Providers</text>
<polygon fill="#fb8072" stroke="transparent" points="601,-10 601,-30 621,-30 621,-10 601,-10"/>
<text text-anchor="start" x="624.7258" y="-15.4" font-family="sans-serif" font-size="14.00" fill="#000000"> &#160;Exports</text>
<g id="clust1" class="cluster">
<title>cluster_ViewsModule</title>
<polygon fill="none" stroke="#000000" stroke-dasharray="1,5" points="8,-70 8,-268 878,-268 878,-70 8,-70"/>
</g>
<g id="clust2" class="cluster">
<title>cluster_ViewsModule_declarations</title>
<polygon fill="none" stroke="#000000" points="382,-78 382,-130 870,-130 870,-78 382,-78"/>
</g>
<g id="clust6" class="cluster">
<title>cluster_ViewsModule_imports</title>
<polygon fill="none" stroke="#000000" points="16,-78 16,-130 374,-130 374,-78 16,-78"/>
</g>
<g id="clust7" class="cluster">
<title>cluster_ViewsModule_exports</title>
<polygon fill="none" stroke="#000000" points="136,-208 136,-260 636,-260 636,-208 136,-208"/>
</g>
<!-- ArticleListComponent -->
<g id="node1" class="node">
<title>ArticleListComponent</title>
<polygon fill="#ffffb3" stroke="#000000" points="861.979,-122 720.021,-122 720.021,-86 861.979,-86 861.979,-122"/>
<text text-anchor="middle" x="791" y="-99.8" font-family="Times,serif" font-size="14.00" fill="#000000">ArticleListComponent</text>
</g>
<!-- ViewsModule -->
<g id="node4" class="node">
<title>ViewsModule</title>
<polygon fill="#8dd3c7" stroke="#000000" points="432.8133,-187 429.8133,-191 408.8133,-191 405.8133,-187 337.1867,-187 337.1867,-151 432.8133,-151 432.8133,-187"/>
<text text-anchor="middle" x="385" y="-164.8" font-family="Times,serif" font-size="14.00" fill="#000000">ViewsModule</text>
</g>
<!-- ArticleListComponent&#45;&gt;ViewsModule -->
<g id="edge1" class="edge">
<title>ArticleListComponent&#45;&gt;ViewsModule</title>
<path fill="none" stroke="#000000" d="M791,-122.1061C791,-141.3391 791,-169 791,-169 791,-169 442.7672,-169 442.7672,-169"/>
<polygon fill="#000000" stroke="#000000" points="442.7673,-165.5001 432.7672,-169 442.7672,-172.5001 442.7673,-165.5001"/>
</g>
<!-- ArticleDetailComponent -->
<g id="node2" class="node">
<title>ArticleDetailComponent</title>
<polygon fill="#ffffb3" stroke="#000000" points="702.4087,-122 547.5913,-122 547.5913,-86 702.4087,-86 702.4087,-122"/>
<text text-anchor="middle" x="625" y="-99.8" font-family="Times,serif" font-size="14.00" fill="#000000">ArticleDetailComponent</text>
</g>
<!-- ArticleDetailComponent&#45;&gt;ViewsModule -->
<g id="edge2" class="edge">
<title>ArticleDetailComponent&#45;&gt;ViewsModule</title>
<path fill="none" stroke="#000000" d="M587.7677,-122.027C587.7677,-138.3976 587.7677,-160 587.7677,-160 587.7677,-160 442.7964,-160 442.7964,-160"/>
<polygon fill="#000000" stroke="#000000" points="442.7964,-156.5001 432.7964,-160 442.7963,-163.5001 442.7964,-156.5001"/>
</g>
<!-- ContactUsComponent -->
<g id="node3" class="node">
<title>ContactUsComponent</title>
<polygon fill="#ffffb3" stroke="#000000" points="530.4313,-122 389.5687,-122 389.5687,-86 530.4313,-86 530.4313,-122"/>
<text text-anchor="middle" x="460" y="-99.8" font-family="Times,serif" font-size="14.00" fill="#000000">ContactUsComponent</text>
</g>
<!-- ContactUsComponent&#45;&gt;ViewsModule -->
<g id="edge3" class="edge">
<title>ContactUsComponent&#45;&gt;ViewsModule</title>
<path fill="none" stroke="#000000" d="M411.2206,-122.1061C411.2206,-122.1061 411.2206,-140.991 411.2206,-140.991"/>
<polygon fill="#000000" stroke="#000000" points="407.7206,-140.9909 411.2206,-150.991 414.7206,-140.991 407.7206,-140.9909"/>
</g>
<!-- ArticleListComponent  -->
<g id="node8" class="node">
<title>ArticleListComponent </title>
<polygon fill="#fb8072" stroke="#000000" points="627.9798,-252 482.0202,-252 482.0202,-216 627.9798,-216 627.9798,-252"/>
<text text-anchor="middle" x="555" y="-229.8" font-family="Times,serif" font-size="14.00" fill="#000000">ArticleListComponent </text>
</g>
<!-- ViewsModule&#45;&gt;ArticleListComponent  -->
<g id="edge7" class="edge">
<title>ViewsModule&#45;&gt;ArticleListComponent </title>
<path fill="none" stroke="#000000" stroke-dasharray="5,2" d="M432.9164,-178C466.8045,-178 506.2379,-178 506.2379,-178 506.2379,-178 506.2379,-205.973 506.2379,-205.973"/>
<polygon fill="#000000" stroke="#000000" points="502.738,-205.973 506.2379,-215.973 509.738,-205.973 502.738,-205.973"/>
</g>
<!-- ArticleDetailComponent  -->
<g id="node9" class="node">
<title>ArticleDetailComponent </title>
<polygon fill="#fb8072" stroke="#000000" points="463.9082,-252 306.0918,-252 306.0918,-216 463.9082,-216 463.9082,-252"/>
<text text-anchor="middle" x="385" y="-229.8" font-family="Times,serif" font-size="14.00" fill="#000000">ArticleDetailComponent </text>
</g>
<!-- ViewsModule&#45;&gt;ArticleDetailComponent  -->
<g id="edge8" class="edge">
<title>ViewsModule&#45;&gt;ArticleDetailComponent </title>
<path fill="none" stroke="#000000" stroke-dasharray="5,2" d="M385,-187.1061C385,-187.1061 385,-205.991 385,-205.991"/>
<polygon fill="#000000" stroke="#000000" points="381.5001,-205.9909 385,-215.991 388.5001,-205.991 381.5001,-205.9909"/>
</g>
<!-- ContactUsComponent  -->
<g id="node10" class="node">
<title>ContactUsComponent </title>
<polygon fill="#fb8072" stroke="#000000" points="287.9306,-252 144.0694,-252 144.0694,-216 287.9306,-216 287.9306,-252"/>
<text text-anchor="middle" x="216" y="-229.8" font-family="Times,serif" font-size="14.00" fill="#000000">ContactUsComponent </text>
</g>
<!-- ViewsModule&#45;&gt;ContactUsComponent  -->
<g id="edge9" class="edge">
<title>ViewsModule&#45;&gt;ContactUsComponent </title>
<path fill="none" stroke="#000000" stroke-dasharray="5,2" d="M337.3418,-178C306.1208,-178 271.0658,-178 271.0658,-178 271.0658,-178 271.0658,-205.973 271.0658,-205.973"/>
<polygon fill="#000000" stroke="#000000" points="267.5658,-205.973 271.0658,-215.973 274.5658,-205.973 267.5658,-205.973"/>
</g>
<!-- CommonModule -->
<g id="node5" class="node">
<title>CommonModule</title>
<polygon fill="#8dd3c7" stroke="#000000" points="365.6681,-122 362.6681,-126 341.6681,-126 338.6681,-122 254.3319,-122 254.3319,-86 365.6681,-86 365.6681,-122"/>
<text text-anchor="middle" x="310" y="-99.8" font-family="Times,serif" font-size="14.00" fill="#000000">CommonModule</text>
</g>
<!-- CommonModule&#45;&gt;ViewsModule -->
<g id="edge4" class="edge">
<title>CommonModule&#45;&gt;ViewsModule</title>
<path fill="none" stroke="#000000" d="M351.5887,-122.1061C351.5887,-122.1061 351.5887,-140.991 351.5887,-140.991"/>
<polygon fill="#000000" stroke="#000000" points="348.0888,-140.9909 351.5887,-150.991 355.0888,-140.991 348.0888,-140.9909"/>
</g>
<!-- SharedModule -->
<g id="node6" class="node">
<title>SharedModule</title>
<polygon fill="#8dd3c7" stroke="#000000" points="236.4231,-122 233.4231,-126 212.4231,-126 209.4231,-122 137.5769,-122 137.5769,-86 236.4231,-86 236.4231,-122"/>
<text text-anchor="middle" x="187" y="-99.8" font-family="Times,serif" font-size="14.00" fill="#000000">SharedModule</text>
</g>
<!-- SharedModule&#45;&gt;ViewsModule -->
<g id="edge5" class="edge">
<title>SharedModule&#45;&gt;ViewsModule</title>
<path fill="none" stroke="#000000" d="M190.1229,-122.027C190.1229,-138.3976 190.1229,-160 190.1229,-160 190.1229,-160 327.3277,-160 327.3277,-160"/>
<polygon fill="#000000" stroke="#000000" points="327.3277,-163.5001 337.3277,-160 327.3277,-156.5001 327.3277,-163.5001"/>
</g>
<!-- FormsModule -->
<g id="node7" class="node">
<title>FormsModule</title>
<polygon fill="#8dd3c7" stroke="#000000" points="119.8288,-122 116.8288,-126 95.8288,-126 92.8288,-122 24.1712,-122 24.1712,-86 119.8288,-86 119.8288,-122"/>
<text text-anchor="middle" x="72" y="-99.8" font-family="Times,serif" font-size="14.00" fill="#000000">FormsModule</text>
</g>
<!-- FormsModule&#45;&gt;ViewsModule -->
<g id="edge6" class="edge">
<title>FormsModule&#45;&gt;ViewsModule</title>
<path fill="none" stroke="#000000" d="M72,-122.1061C72,-141.3391 72,-169 72,-169 72,-169 327.1213,-169 327.1213,-169"/>
<polygon fill="#000000" stroke="#000000" points="327.1214,-172.5001 337.1213,-169 327.1213,-165.5001 327.1214,-172.5001"/>
</g>
</g>
</svg>
