<?xml version="1.0" encoding="UTF-8" standalone="no"?>
<!DOCTYPE svg PUBLIC "-//W3C//DTD SVG 1.1//EN"
 "http://www.w3.org/Graphics/SVG/1.1/DTD/svg11.dtd">
<!-- Generated by graphviz version 2.40.1 (20161225.0304)
 -->
<!-- Title: dependencies Pages: 1 -->
<svg width="806pt" height="284pt"
 viewBox="0.00 0.00 806.00 284.00" xmlns="http://www.w3.org/2000/svg" xmlns:xlink="http://www.w3.org/1999/xlink">
<g id="graph0" class="graph" transform="scale(1 1) rotate(0) translate(4 280)">
<title>dependencies</title>
<polygon fill="#ffffff" stroke="transparent" points="-4,4 -4,-280 802,-280 802,4 -4,4"/>
<text text-anchor="start" x="378.0091" y="-42.4" font-family="sans-serif" font-weight="bold" font-size="14.00" fill="#000000">Legend</text>
<polygon fill="#ffffb3" stroke="transparent" points="165,-10 165,-30 185,-30 185,-10 165,-10"/>
<text text-anchor="start" x="188.629" y="-15.4" font-family="sans-serif" font-size="14.00" fill="#000000"> &#160;Declarations</text>
<polygon fill="#8dd3c7" stroke="transparent" points="278,-10 278,-30 298,-30 298,-10 278,-10"/>
<text text-anchor="start" x="301.7251" y="-15.4" font-family="sans-serif" font-size="14.00" fill="#000000"> &#160;Module</text>
<polygon fill="#80b1d3" stroke="transparent" points="364,-10 364,-30 384,-30 384,-10 364,-10"/>
<text text-anchor="start" x="387.7812" y="-15.4" font-family="sans-serif" font-size="14.00" fill="#000000"> &#160;Bootstrap</text>
<polygon fill="#fdb462" stroke="transparent" points="461,-10 461,-30 481,-30 481,-10 461,-10"/>
<text text-anchor="start" x="484.6732" y="-15.4" font-family="sans-serif" font-size="14.00" fill="#000000"> &#160;Providers</text>
<polygon fill="#fb8072" stroke="transparent" points="557,-10 557,-30 577,-30 577,-10 557,-10"/>
<text text-anchor="start" x="580.7258" y="-15.4" font-family="sans-serif" font-size="14.00" fill="#000000"> &#160;Exports</text>
<g id="clust1" class="cluster">
<title>cluster_AppModule</title>
<polygon fill="none" stroke="#000000" stroke-dasharray="1,5" points="8,-70 8,-268 790,-268 790,-70 8,-70"/>
</g>
<g id="clust2" class="cluster">
<title>cluster_AppModule_declarations</title>
<polygon fill="none" stroke="#000000" points="660,-78 660,-130 782,-130 782,-78 660,-78"/>
</g>
<g id="clust4" class="cluster">
<title>cluster_AppModule_imports</title>
<polygon fill="none" stroke="#000000" points="16,-78 16,-130 652,-130 652,-78 16,-78"/>
</g>
<g id="clust6" class="cluster">
<title>cluster_AppModule_bootstrap</title>
<polygon fill="none" stroke="#000000" points="350,-208 350,-260 474,-260 474,-208 350,-208"/>
</g>
<!-- AppComponent -->
<g id="node1" class="node">
<title>AppComponent</title>
<polygon fill="#ffffb3" stroke="#000000" points="773.9399,-122 668.0601,-122 668.0601,-86 773.9399,-86 773.9399,-122"/>
<text text-anchor="middle" x="721" y="-99.8" font-family="Times,serif" font-size="14.00" fill="#000000">AppComponent</text>
</g>
<!-- AppModule -->
<g id="node2" class="node">
<title>AppModule</title>
<polygon fill="#8dd3c7" stroke="#000000" points="453.6571,-187 450.6571,-191 429.6571,-191 426.6571,-187 370.3429,-187 370.3429,-151 453.6571,-151 453.6571,-187"/>
<text text-anchor="middle" x="412" y="-164.8" font-family="Times,serif" font-size="14.00" fill="#000000">AppModule</text>
</g>
<!-- AppComponent&#45;&gt;AppModule -->
<g id="edge1" class="edge">
<title>AppComponent&#45;&gt;AppModule</title>
<path fill="none" stroke="#000000" d="M721,-122.2843C721,-143.3211 721,-175 721,-175 721,-175 463.6731,-175 463.6731,-175"/>
<polygon fill="#000000" stroke="#000000" points="463.6731,-171.5001 453.6731,-175 463.6731,-178.5001 463.6731,-171.5001"/>
</g>
<!-- AppComponent  -->
<g id="node8" class="node">
<title>AppComponent </title>
<polygon fill="#80b1d3" stroke="#000000" points="466.439,-252 357.561,-252 357.561,-216 466.439,-216 466.439,-252"/>
<text text-anchor="middle" x="412" y="-229.8" font-family="Times,serif" font-size="14.00" fill="#000000">AppComponent </text>
</g>
<!-- AppModule&#45;&gt;AppComponent  -->
<g id="edge7" class="edge">
<title>AppModule&#45;&gt;AppComponent </title>
<path fill="none" stroke="#000000" stroke-dasharray="1,5" d="M412,-187.1061C412,-187.1061 412,-205.991 412,-205.991"/>
<polygon fill="#000000" stroke="#000000" points="408.5001,-205.9909 412,-215.991 415.5001,-205.991 408.5001,-205.9909"/>
</g>
<!-- BrowserModule -->
<g id="node3" class="node">
<title>BrowserModule</title>
<polygon fill="#8dd3c7" stroke="#000000" points="644.4734,-122 641.4734,-126 620.4734,-126 617.4734,-122 537.5266,-122 537.5266,-86 644.4734,-86 644.4734,-122"/>
<text text-anchor="middle" x="591" y="-99.8" font-family="Times,serif" font-size="14.00" fill="#000000">BrowserModule</text>
</g>
<!-- BrowserModule&#45;&gt;AppModule -->
<g id="edge2" class="edge">
<title>BrowserModule&#45;&gt;AppModule</title>
<path fill="none" stroke="#000000" d="M591,-122.0225C591,-139.3734 591,-163 591,-163 591,-163 463.9675,-163 463.9675,-163"/>
<polygon fill="#000000" stroke="#000000" points="463.9676,-159.5001 453.9675,-163 463.9675,-166.5001 463.9676,-159.5001"/>
</g>
<!-- SharedModule -->
<g id="node4" class="node">
<title>SharedModule</title>
<polygon fill="#8dd3c7" stroke="#000000" points="519.4231,-122 516.4231,-126 495.4231,-126 492.4231,-122 420.5769,-122 420.5769,-86 519.4231,-86 519.4231,-122"/>
<text text-anchor="middle" x="470" y="-99.8" font-family="Times,serif" font-size="14.00" fill="#000000">SharedModule</text>
</g>
<!-- SharedModule&#45;&gt;AppModule -->
<g id="edge3" class="edge">
<title>SharedModule&#45;&gt;AppModule</title>
<path fill="none" stroke="#000000" d="M437.3086,-122.1061C437.3086,-122.1061 437.3086,-140.991 437.3086,-140.991"/>
<polygon fill="#000000" stroke="#000000" points="433.8086,-140.9909 437.3086,-150.991 440.8086,-140.991 433.8086,-140.9909"/>
</g>
<!-- ViewsModule -->
<g id="node5" class="node">
<title>ViewsModule</title>
<polygon fill="#8dd3c7" stroke="#000000" points="402.8133,-122 399.8133,-126 378.8133,-126 375.8133,-122 307.1867,-122 307.1867,-86 402.8133,-86 402.8133,-122"/>
<text text-anchor="middle" x="355" y="-99.8" font-family="Times,serif" font-size="14.00" fill="#000000">ViewsModule</text>
</g>
<!-- ViewsModule&#45;&gt;AppModule -->
<g id="edge4" class="edge">
<title>ViewsModule&#45;&gt;AppModule</title>
<path fill="none" stroke="#000000" d="M386.4141,-122.1061C386.4141,-122.1061 386.4141,-140.991 386.4141,-140.991"/>
<polygon fill="#000000" stroke="#000000" points="382.9142,-140.9909 386.4141,-150.991 389.9142,-140.991 382.9142,-140.9909"/>
</g>
<!-- AppRoutingModule -->
<g id="node6" class="node">
<title>AppRoutingModule</title>
<polygon fill="#8dd3c7" stroke="#000000" points="289.2744,-122 286.2744,-126 265.2744,-126 262.2744,-122 160.7256,-122 160.7256,-86 289.2744,-86 289.2744,-122"/>
<text text-anchor="middle" x="225" y="-99.8" font-family="Times,serif" font-size="14.00" fill="#000000">AppRoutingModule</text>
</g>
<!-- AppRoutingModule&#45;&gt;AppModule -->
<g id="edge5" class="edge">
<title>AppRoutingModule&#45;&gt;AppModule</title>
<path fill="none" stroke="#000000" d="M225,-122.0225C225,-139.3734 225,-163 225,-163 225,-163 360.0335,-163 360.0335,-163"/>
<polygon fill="#000000" stroke="#000000" points="360.0336,-166.5001 370.0335,-163 360.0335,-159.5001 360.0336,-166.5001"/>
</g>
<!-- HttpClientModule -->
<g id="node7" class="node">
<title>HttpClientModule</title>
<polygon fill="#8dd3c7" stroke="#000000" points="142.1611,-122 139.1611,-126 118.1611,-126 115.1611,-122 23.8389,-122 23.8389,-86 142.1611,-86 142.1611,-122"/>
<text text-anchor="middle" x="83" y="-99.8" font-family="Times,serif" font-size="14.00" fill="#000000">HttpClientModule</text>
</g>
<!-- HttpClientModule&#45;&gt;AppModule -->
<g id="edge6" class="edge">
<title>HttpClientModule&#45;&gt;AppModule</title>
<path fill="none" stroke="#000000" d="M83,-122.2843C83,-143.3211 83,-175 83,-175 83,-175 360.3319,-175 360.3319,-175"/>
<polygon fill="#000000" stroke="#000000" points="360.332,-178.5001 370.3319,-175 360.3319,-171.5001 360.332,-178.5001"/>
</g>
</g>
</svg>
