<?xml version="1.0" encoding="UTF-8" standalone="no"?>
<!DOCTYPE svg PUBLIC "-//W3C//DTD SVG 1.1//EN"
 "http://www.w3.org/Graphics/SVG/1.1/DTD/svg11.dtd">
<!-- Generated by graphviz version 2.40.1 (20161225.0304)
 -->
<!-- Title: dependencies Pages: 1 -->
<svg width="1537pt" height="431pt"
 viewBox="0.00 0.00 1537.00 431.00" xmlns="http://www.w3.org/2000/svg" xmlns:xlink="http://www.w3.org/1999/xlink">
<g id="graph0" class="graph" transform="scale(1 1) rotate(0) translate(4 427)">
<title>dependencies</title>
<polygon fill="#ffffff" stroke="transparent" points="-4,4 -4,-427 1533,-427 1533,4 -4,4"/>
<text text-anchor="start" x="743.5091" y="-42.4" font-family="sans-serif" font-weight="bold" font-size="14.00" fill="#000000">Legend</text>
<polygon fill="#ffffb3" stroke="transparent" points="530.5,-10 530.5,-30 550.5,-30 550.5,-10 530.5,-10"/>
<text text-anchor="start" x="554.129" y="-15.4" font-family="sans-serif" font-size="14.00" fill="#000000"> &#160;Declarations</text>
<polygon fill="#8dd3c7" stroke="transparent" points="643.5,-10 643.5,-30 663.5,-30 663.5,-10 643.5,-10"/>
<text text-anchor="start" x="667.2251" y="-15.4" font-family="sans-serif" font-size="14.00" fill="#000000"> &#160;Module</text>
<polygon fill="#80b1d3" stroke="transparent" points="729.5,-10 729.5,-30 749.5,-30 749.5,-10 729.5,-10"/>
<text text-anchor="start" x="753.2812" y="-15.4" font-family="sans-serif" font-size="14.00" fill="#000000"> &#160;Bootstrap</text>
<polygon fill="#fdb462" stroke="transparent" points="826.5,-10 826.5,-30 846.5,-30 846.5,-10 826.5,-10"/>
<text text-anchor="start" x="850.1732" y="-15.4" font-family="sans-serif" font-size="14.00" fill="#000000"> &#160;Providers</text>
<polygon fill="#fb8072" stroke="transparent" points="922.5,-10 922.5,-30 942.5,-30 942.5,-10 922.5,-10"/>
<text text-anchor="start" x="946.2258" y="-15.4" font-family="sans-serif" font-size="14.00" fill="#000000"> &#160;Exports</text>
<g id="clust1" class="cluster">
<title>cluster_AppModule</title>
<polygon fill="none" stroke="#000000" stroke-dasharray="1,5" points="62,-146 62,-415 501,-415 501,-146 62,-146"/>
</g>
<g id="clust2" class="cluster">
<title>cluster_AppModule_declarations</title>
<polygon fill="none" stroke="#000000" points="102,-219 102,-271 224,-271 224,-219 102,-219"/>
</g>
<g id="clust4" class="cluster">
<title>cluster_AppModule_imports</title>
<polygon fill="none" stroke="#000000" points="232,-154 232,-271 493,-271 493,-154 232,-154"/>
</g>
<g id="clust6" class="cluster">
<title>cluster_AppModule_bootstrap</title>
<polygon fill="none" stroke="#000000" points="85,-355 85,-407 209,-407 209,-355 85,-355"/>
</g>
<g id="clust14" class="cluster">
<title>cluster_SharedModule</title>
<polygon fill="none" stroke="#000000" stroke-dasharray="1,5" points="8,-70 8,-138 896,-138 896,-70 8,-70"/>
</g>
<g id="clust15" class="cluster">
<title>cluster_SharedModule_declarations</title>
<polygon fill="none" stroke="#000000" points="538,-78 538,-130 888,-130 888,-78 538,-78"/>
</g>
<g id="clust19" class="cluster">
<title>cluster_SharedModule_exports</title>
<polygon fill="none" stroke="#000000" points="174,-78 174,-130 530,-130 530,-78 174,-78"/>
</g>
<g id="clust21" class="cluster">
<title>cluster_SharedModule_providers</title>
<polygon fill="none" stroke="#000000" points="16,-78 16,-130 166,-130 166,-78 16,-78"/>
</g>
<g id="clust22" class="cluster">
<title>cluster_ViewsModule</title>
<polygon fill="none" stroke="#000000" stroke-dasharray="1,5" points="509,-279 509,-347 1521,-347 1521,-279 509,-279"/>
</g>
<g id="clust23" class="cluster">
<title>cluster_ViewsModule_declarations</title>
<polygon fill="none" stroke="#000000" points="1025,-287 1025,-339 1513,-339 1513,-287 1025,-287"/>
</g>
<g id="clust28" class="cluster">
<title>cluster_ViewsModule_exports</title>
<polygon fill="none" stroke="#000000" points="517,-287 517,-339 1017,-339 1017,-287 517,-287"/>
</g>
<!-- AppComponent -->
<g id="node1" class="node">
<title>AppComponent</title>
<polygon fill="#ffffb3" stroke="#000000" points="215.9399,-263 110.0601,-263 110.0601,-227 215.9399,-227 215.9399,-263"/>
<text text-anchor="middle" x="163" y="-240.8" font-family="Times,serif" font-size="14.00" fill="#000000">AppComponent</text>
</g>
<!-- AppModule -->
<g id="node2" class="node">
<title>AppModule</title>
<polygon fill="#8dd3c7" stroke="#000000" points="188.6571,-331 185.6571,-335 164.6571,-335 161.6571,-331 105.3429,-331 105.3429,-295 188.6571,-295 188.6571,-331"/>
<text text-anchor="middle" x="147" y="-308.8" font-family="Times,serif" font-size="14.00" fill="#000000">AppModule</text>
</g>
<!-- AppComponent&#45;&gt;AppModule -->
<g id="edge1" class="edge">
<title>AppComponent&#45;&gt;AppModule</title>
<path fill="none" stroke="#000000" d="M149.5544,-263.2228C149.5544,-263.2228 149.5544,-284.7269 149.5544,-284.7269"/>
<polygon fill="#000000" stroke="#000000" points="146.0544,-284.7269 149.5544,-294.7269 153.0544,-284.727 146.0544,-284.7269"/>
</g>
<!-- AppComponent  -->
<g id="node6" class="node">
<title>AppComponent </title>
<polygon fill="#80b1d3" stroke="#000000" points="201.439,-399 92.561,-399 92.561,-363 201.439,-363 201.439,-399"/>
<text text-anchor="middle" x="147" y="-376.8" font-family="Times,serif" font-size="14.00" fill="#000000">AppComponent </text>
</g>
<!-- AppModule&#45;&gt;AppComponent  -->
<g id="edge5" class="edge">
<title>AppModule&#45;&gt;AppComponent </title>
<path fill="none" stroke="#000000" stroke-dasharray="1,5" d="M147,-331.2228C147,-331.2228 147,-352.7269 147,-352.7269"/>
<polygon fill="#000000" stroke="#000000" points="143.5001,-352.7269 147,-362.7269 150.5001,-352.727 143.5001,-352.7269"/>
</g>
<!-- AppRoutingModule -->
<g id="node3" class="node">
<title>AppRoutingModule</title>
<polygon fill="#8dd3c7" stroke="#000000" points="368.2744,-198 365.2744,-202 344.2744,-202 341.2744,-198 239.7256,-198 239.7256,-162 368.2744,-162 368.2744,-198"/>
<text text-anchor="middle" x="304" y="-175.8" font-family="Times,serif" font-size="14.00" fill="#000000">AppRoutingModule</text>
</g>
<!-- AppRoutingModule&#45;&gt;AppModule -->
<g id="edge2" class="edge">
<title>AppRoutingModule&#45;&gt;AppModule</title>
<path fill="none" stroke="#000000" d="M304,-198.0307C304,-232.4218 304,-304 304,-304 304,-304 198.6609,-304 198.6609,-304"/>
<polygon fill="#000000" stroke="#000000" points="198.661,-300.5001 188.6609,-304 198.6609,-307.5001 198.661,-300.5001"/>
</g>
<!-- SharedModule -->
<g id="node4" class="node">
<title>SharedModule</title>
<polygon fill="#8dd3c7" stroke="#000000" points="485.4231,-198 482.4231,-202 461.4231,-202 458.4231,-198 386.5769,-198 386.5769,-162 485.4231,-162 485.4231,-198"/>
<text text-anchor="middle" x="436" y="-175.8" font-family="Times,serif" font-size="14.00" fill="#000000">SharedModule</text>
</g>
<!-- SharedModule&#45;&gt;AppModule -->
<g id="edge3" class="edge">
<title>SharedModule&#45;&gt;AppModule</title>
<path fill="none" stroke="#000000" d="M386.7149,-180C381.2388,-180 377.588,-180 377.588,-180 377.588,-180 377.588,-313 377.588,-313 377.588,-313 198.7577,-313 198.7577,-313"/>
<polygon fill="#000000" stroke="#000000" points="198.7578,-309.5001 188.7577,-313 198.7577,-316.5001 198.7578,-309.5001"/>
</g>
<!-- ViewsModule -->
<g id="node5" class="node">
<title>ViewsModule</title>
<polygon fill="#8dd3c7" stroke="#000000" points="484.8133,-263 481.8133,-267 460.8133,-267 457.8133,-263 389.1867,-263 389.1867,-227 484.8133,-227 484.8133,-263"/>
<text text-anchor="middle" x="437" y="-240.8" font-family="Times,serif" font-size="14.00" fill="#000000">ViewsModule</text>
</g>
<!-- SharedModule&#45;&gt;ViewsModule -->
<g id="edge14" class="edge">
<title>SharedModule&#45;&gt;ViewsModule</title>
<path fill="none" stroke="#000000" d="M437,-198.1061C437,-198.1061 437,-216.991 437,-216.991"/>
<polygon fill="#000000" stroke="#000000" points="433.5001,-216.9909 437,-226.991 440.5001,-216.991 433.5001,-216.9909"/>
</g>
<!-- ArticleListItemComponent  -->
<g id="node9" class="node">
<title>ArticleListItemComponent </title>
<polygon fill="#fb8072" stroke="#000000" points="521.6355,-122 350.3645,-122 350.3645,-86 521.6355,-86 521.6355,-122"/>
<text text-anchor="middle" x="436" y="-99.8" font-family="Times,serif" font-size="14.00" fill="#000000">ArticleListItemComponent </text>
</g>
<!-- SharedModule&#45;&gt;ArticleListItemComponent  -->
<g id="edge8" class="edge">
<title>SharedModule&#45;&gt;ArticleListItemComponent </title>
<path fill="none" stroke="#000000" stroke-dasharray="5,2" d="M460.6056,-161.9891C460.6056,-161.9891 460.6056,-132.145 460.6056,-132.145"/>
<polygon fill="#000000" stroke="#000000" points="464.1056,-132.145 460.6056,-122.145 457.1056,-132.1451 464.1056,-132.145"/>
</g>
<!-- TopNavBarComponent  -->
<g id="node10" class="node">
<title>TopNavBarComponent </title>
<polygon fill="#fb8072" stroke="#000000" points="332.418,-122 181.582,-122 181.582,-86 332.418,-86 332.418,-122"/>
<text text-anchor="middle" x="257" y="-99.8" font-family="Times,serif" font-size="14.00" fill="#000000">TopNavBarComponent </text>
</g>
<!-- SharedModule&#45;&gt;TopNavBarComponent  -->
<g id="edge9" class="edge">
<title>SharedModule&#45;&gt;TopNavBarComponent </title>
<path fill="none" stroke="#000000" stroke-dasharray="5,2" d="M436,-161.8495C436,-149.7292 436,-136 436,-136 436,-136 286.036,-136 286.036,-136 286.036,-136 286.036,-132.2434 286.036,-132.2434"/>
<polygon fill="#000000" stroke="#000000" points="289.536,-132.2434 286.036,-122.2434 282.536,-132.2434 289.536,-132.2434"/>
</g>
<!-- ViewsModule&#45;&gt;AppModule -->
<g id="edge4" class="edge">
<title>ViewsModule&#45;&gt;AppModule</title>
<path fill="none" stroke="#000000" d="M437,-263.2479C437,-286.0179 437,-322 437,-322 437,-322 198.8588,-322 198.8588,-322"/>
<polygon fill="#000000" stroke="#000000" points="198.8588,-318.5001 188.8588,-322 198.8587,-325.5001 198.8588,-318.5001"/>
</g>
<!-- ArticleDetailComponent  -->
<g id="node15" class="node">
<title>ArticleDetailComponent </title>
<polygon fill="#fb8072" stroke="#000000" points="1008.9082,-331 851.0918,-331 851.0918,-295 1008.9082,-295 1008.9082,-331"/>
<text text-anchor="middle" x="930" y="-308.8" font-family="Times,serif" font-size="14.00" fill="#000000">ArticleDetailComponent </text>
</g>
<!-- ViewsModule&#45;&gt;ArticleDetailComponent  -->
<g id="edge15" class="edge">
<title>ViewsModule&#45;&gt;ArticleDetailComponent </title>
<path fill="none" stroke="#000000" stroke-dasharray="5,2" d="M484.8995,-248C596.6973,-248 865.4318,-248 865.4318,-248 865.4318,-248 865.4318,-284.8939 865.4318,-284.8939"/>
<polygon fill="#000000" stroke="#000000" points="861.9319,-284.8938 865.4318,-294.8939 868.9319,-284.8939 861.9319,-284.8938"/>
</g>
<!-- ArticleListComponent  -->
<g id="node16" class="node">
<title>ArticleListComponent </title>
<polygon fill="#fb8072" stroke="#000000" points="832.9798,-331 687.0202,-331 687.0202,-295 832.9798,-295 832.9798,-331"/>
<text text-anchor="middle" x="760" y="-308.8" font-family="Times,serif" font-size="14.00" fill="#000000">ArticleListComponent </text>
</g>
<!-- ViewsModule&#45;&gt;ArticleListComponent  -->
<g id="edge16" class="edge">
<title>ViewsModule&#45;&gt;ArticleListComponent </title>
<path fill="none" stroke="#000000" stroke-dasharray="5,2" d="M484.8529,-253C561.4203,-253 702.9456,-253 702.9456,-253 702.9456,-253 702.9456,-284.998 702.9456,-284.998"/>
<polygon fill="#000000" stroke="#000000" points="699.4457,-284.998 702.9456,-294.998 706.4457,-284.9981 699.4457,-284.998"/>
</g>
<!-- ContactUsComponent  -->
<g id="node17" class="node">
<title>ContactUsComponent </title>
<polygon fill="#fb8072" stroke="#000000" points="668.9306,-331 525.0694,-331 525.0694,-295 668.9306,-295 668.9306,-331"/>
<text text-anchor="middle" x="597" y="-308.8" font-family="Times,serif" font-size="14.00" fill="#000000">ContactUsComponent </text>
</g>
<!-- ViewsModule&#45;&gt;ContactUsComponent  -->
<g id="edge17" class="edge">
<title>ViewsModule&#45;&gt;ContactUsComponent </title>
<path fill="none" stroke="#000000" stroke-dasharray="5,2" d="M484.8864,-258C510.0242,-258 535.6628,-258 535.6628,-258 535.6628,-258 535.6628,-284.9909 535.6628,-284.9909"/>
<polygon fill="#000000" stroke="#000000" points="532.1629,-284.9909 535.6628,-294.9909 539.1629,-284.991 532.1629,-284.9909"/>
</g>
<!-- ArticleListItemComponent -->
<g id="node7" class="node">
<title>ArticleListItemComponent</title>
<polygon fill="#ffffb3" stroke="#000000" points="879.6358,-122 712.3642,-122 712.3642,-86 879.6358,-86 879.6358,-122"/>
<text text-anchor="middle" x="796" y="-99.8" font-family="Times,serif" font-size="14.00" fill="#000000">ArticleListItemComponent</text>
</g>
<!-- ArticleListItemComponent&#45;&gt;SharedModule -->
<g id="edge6" class="edge">
<title>ArticleListItemComponent&#45;&gt;SharedModule</title>
<path fill="none" stroke="#000000" d="M772.4609,-122.1985C772.4609,-146.3563 772.4609,-186 772.4609,-186 772.4609,-186 495.2846,-186 495.2846,-186"/>
<polygon fill="#000000" stroke="#000000" points="495.2847,-182.5001 485.2846,-186 495.2846,-189.5001 495.2847,-182.5001"/>
</g>
<!-- TopNavBarComponent -->
<g id="node8" class="node">
<title>TopNavBarComponent</title>
<polygon fill="#ffffb3" stroke="#000000" points="693.9186,-122 546.0814,-122 546.0814,-86 693.9186,-86 693.9186,-122"/>
<text text-anchor="middle" x="620" y="-99.8" font-family="Times,serif" font-size="14.00" fill="#000000">TopNavBarComponent</text>
</g>
<!-- TopNavBarComponent&#45;&gt;SharedModule -->
<g id="edge7" class="edge">
<title>TopNavBarComponent&#45;&gt;SharedModule</title>
<path fill="none" stroke="#000000" d="M607.6282,-122.0267C607.6282,-142.7672 607.6282,-174 607.6282,-174 607.6282,-174 495.642,-174 495.642,-174"/>
<polygon fill="#000000" stroke="#000000" points="495.642,-170.5001 485.642,-174 495.6419,-177.5001 495.642,-170.5001"/>
</g>
<!-- ArticleService -->
<g id="node11" class="node">
<title>ArticleService</title>
<ellipse fill="#fdb462" stroke="#000000" cx="91" cy="-104" rx="66.6055" ry="18"/>
<text text-anchor="middle" x="91" y="-99.8" font-family="Times,serif" font-size="14.00" fill="#000000">ArticleService</text>
</g>
<!-- ArticleService&#45;&gt;SharedModule -->
<g id="edge10" class="edge">
<title>ArticleService&#45;&gt;SharedModule</title>
<path fill="none" stroke="#000000" d="M134.0415,-118.2383C134.0415,-131.4219 134.0415,-149 134.0415,-149 134.0415,-149 411.3945,-149 411.3945,-149 411.3945,-149 411.3945,-151.9672 411.3945,-151.9672"/>
<polygon fill="#000000" stroke="#000000" points="407.8945,-151.9671 411.3945,-161.9672 414.8945,-151.9672 407.8945,-151.9671"/>
</g>
<!-- ArticleDetailComponent -->
<g id="node12" class="node">
<title>ArticleDetailComponent</title>
<polygon fill="#ffffb3" stroke="#000000" points="1505.4087,-331 1350.5913,-331 1350.5913,-295 1505.4087,-295 1505.4087,-331"/>
<text text-anchor="middle" x="1428" y="-308.8" font-family="Times,serif" font-size="14.00" fill="#000000">ArticleDetailComponent</text>
</g>
<!-- ArticleDetailComponent&#45;&gt;ViewsModule -->
<g id="edge11" class="edge">
<title>ArticleDetailComponent&#45;&gt;ViewsModule</title>
<path fill="none" stroke="#000000" d="M1428,-294.8468C1428,-271.2434 1428,-233 1428,-233 1428,-233 494.798,-233 494.798,-233"/>
<polygon fill="#000000" stroke="#000000" points="494.798,-229.5001 484.798,-233 494.798,-236.5001 494.798,-229.5001"/>
</g>
<!-- ArticleListComponent -->
<g id="node13" class="node">
<title>ArticleListComponent</title>
<polygon fill="#ffffb3" stroke="#000000" points="1332.979,-331 1191.021,-331 1191.021,-295 1332.979,-295 1332.979,-331"/>
<text text-anchor="middle" x="1262" y="-308.8" font-family="Times,serif" font-size="14.00" fill="#000000">ArticleListComponent</text>
</g>
<!-- ArticleListComponent&#45;&gt;ViewsModule -->
<g id="edge12" class="edge">
<title>ArticleListComponent&#45;&gt;ViewsModule</title>
<path fill="none" stroke="#000000" d="M1262,-294.8446C1262,-272.6481 1262,-238 1262,-238 1262,-238 494.9214,-238 494.9214,-238"/>
<polygon fill="#000000" stroke="#000000" points="494.9215,-234.5001 484.9214,-238 494.9214,-241.5001 494.9215,-234.5001"/>
</g>
<!-- ContactUsComponent -->
<g id="node14" class="node">
<title>ContactUsComponent</title>
<polygon fill="#ffffb3" stroke="#000000" points="1173.4313,-331 1032.5687,-331 1032.5687,-295 1173.4313,-295 1173.4313,-331"/>
<text text-anchor="middle" x="1103" y="-308.8" font-family="Times,serif" font-size="14.00" fill="#000000">ContactUsComponent</text>
</g>
<!-- ContactUsComponent&#45;&gt;ViewsModule -->
<g id="edge13" class="edge">
<title>ContactUsComponent&#45;&gt;ViewsModule</title>
<path fill="none" stroke="#000000" d="M1103,-294.9733C1103,-274.2328 1103,-243 1103,-243 1103,-243 494.8971,-243 494.8971,-243"/>
<polygon fill="#000000" stroke="#000000" points="494.8971,-239.5001 484.8971,-243 494.897,-246.5001 494.8971,-239.5001"/>
</g>
</g>
</svg>
