<?xml version="1.0" encoding="UTF-8" standalone="no"?>
<!DOCTYPE svg PUBLIC "-//W3C//DTD SVG 1.1//EN"
 "http://www.w3.org/Graphics/SVG/1.1/DTD/svg11.dtd">
<!-- Generated by graphviz version 2.40.1 (20161225.0304)
 -->
<!-- Title: dependencies Pages: 1 -->
<svg width="2306pt" height="436pt"
 viewBox="0.00 0.00 2306.00 436.00" xmlns="http://www.w3.org/2000/svg" xmlns:xlink="http://www.w3.org/1999/xlink">
<g id="graph0" class="graph" transform="scale(1 1) rotate(0) translate(4 432)">
<title>dependencies</title>
<polygon fill="#ffffff" stroke="transparent" points="-4,4 -4,-432 2302,-432 2302,4 -4,4"/>
<text text-anchor="start" x="1128.0091" y="-42.4" font-family="sans-serif" font-weight="bold" font-size="14.00" fill="#000000">Legend</text>
<polygon fill="#ffffb3" stroke="transparent" points="915,-10 915,-30 935,-30 935,-10 915,-10"/>
<text text-anchor="start" x="938.629" y="-15.4" font-family="sans-serif" font-size="14.00" fill="#000000"> &#160;Declarations</text>
<polygon fill="#8dd3c7" stroke="transparent" points="1028,-10 1028,-30 1048,-30 1048,-10 1028,-10"/>
<text text-anchor="start" x="1051.7251" y="-15.4" font-family="sans-serif" font-size="14.00" fill="#000000"> &#160;Module</text>
<polygon fill="#80b1d3" stroke="transparent" points="1114,-10 1114,-30 1134,-30 1134,-10 1114,-10"/>
<text text-anchor="start" x="1137.7812" y="-15.4" font-family="sans-serif" font-size="14.00" fill="#000000"> &#160;Bootstrap</text>
<polygon fill="#fdb462" stroke="transparent" points="1211,-10 1211,-30 1231,-30 1231,-10 1211,-10"/>
<text text-anchor="start" x="1234.6732" y="-15.4" font-family="sans-serif" font-size="14.00" fill="#000000"> &#160;Providers</text>
<polygon fill="#fb8072" stroke="transparent" points="1307,-10 1307,-30 1327,-30 1327,-10 1307,-10"/>
<text text-anchor="start" x="1330.7258" y="-15.4" font-family="sans-serif" font-size="14.00" fill="#000000"> &#160;Exports</text>
<g id="clust1" class="cluster">
<title>cluster_AppModule</title>
<polygon fill="none" stroke="#000000" stroke-dasharray="1,5" points="1277,-146 1277,-420 1946,-420 1946,-146 1277,-146"/>
</g>
<g id="clust2" class="cluster">
<title>cluster_AppModule_declarations</title>
<polygon fill="none" stroke="#000000" points="1816,-230 1816,-282 1938,-282 1938,-230 1816,-230"/>
</g>
<g id="clust4" class="cluster">
<title>cluster_AppModule_imports</title>
<polygon fill="none" stroke="#000000" points="1285,-154 1285,-282 1808,-282 1808,-154 1285,-154"/>
</g>
<g id="clust6" class="cluster">
<title>cluster_AppModule_bootstrap</title>
<polygon fill="none" stroke="#000000" points="1466,-360 1466,-412 1590,-412 1590,-360 1466,-360"/>
</g>
<g id="clust8" class="cluster">
<title>cluster_AppRoutingModule</title>
<polygon fill="none" stroke="#000000" stroke-dasharray="1,5" points="1954,-222 1954,-290 2290,-290 2290,-222 1954,-222"/>
</g>
<g id="clust10" class="cluster">
<title>cluster_AppRoutingModule_imports</title>
<polygon fill="none" stroke="#000000" points="2088,-230 2088,-282 2282,-282 2282,-230 2088,-230"/>
</g>
<g id="clust11" class="cluster">
<title>cluster_AppRoutingModule_exports</title>
<polygon fill="none" stroke="#000000" points="1962,-230 1962,-282 2080,-282 2080,-230 1962,-230"/>
</g>
<g id="clust14" class="cluster">
<title>cluster_SharedModule</title>
<polygon fill="none" stroke="#000000" stroke-dasharray="1,5" points="775,-70 775,-138 1885,-138 1885,-70 775,-70"/>
</g>
<g id="clust15" class="cluster">
<title>cluster_SharedModule_declarations</title>
<polygon fill="none" stroke="#000000" points="1532,-78 1532,-130 1877,-130 1877,-78 1532,-78"/>
</g>
<g id="clust19" class="cluster">
<title>cluster_SharedModule_imports</title>
<polygon fill="none" stroke="#000000" points="1414,-78 1414,-130 1524,-130 1524,-78 1414,-78"/>
</g>
<g id="clust20" class="cluster">
<title>cluster_SharedModule_exports</title>
<polygon fill="none" stroke="#000000" points="935,-78 935,-130 1406,-130 1406,-78 935,-78"/>
</g>
<g id="clust22" class="cluster">
<title>cluster_SharedModule_providers</title>
<polygon fill="none" stroke="#000000" points="783,-78 783,-130 927,-130 927,-78 783,-78"/>
</g>
<g id="clust23" class="cluster">
<title>cluster_ViewsModule</title>
<polygon fill="none" stroke="#000000" stroke-dasharray="1,5" points="8,-146 8,-214 1269,-214 1269,-146 8,-146"/>
</g>
<g id="clust24" class="cluster">
<title>cluster_ViewsModule_declarations</title>
<polygon fill="none" stroke="#000000" points="773,-154 773,-206 1261,-206 1261,-154 773,-154"/>
</g>
<g id="clust28" class="cluster">
<title>cluster_ViewsModule_imports</title>
<polygon fill="none" stroke="#000000" points="524,-154 524,-206 765,-206 765,-154 524,-154"/>
</g>
<g id="clust29" class="cluster">
<title>cluster_ViewsModule_exports</title>
<polygon fill="none" stroke="#000000" points="16,-154 16,-206 516,-206 516,-154 16,-154"/>
</g>
<!-- AppComponent -->
<g id="node1" class="node">
<title>AppComponent</title>
<polygon fill="#ffffb3" stroke="#000000" points="1929.9399,-274 1824.0601,-274 1824.0601,-238 1929.9399,-238 1929.9399,-274"/>
<text text-anchor="middle" x="1877" y="-251.8" font-family="Times,serif" font-size="14.00" fill="#000000">AppComponent</text>
</g>
<!-- AppModule -->
<g id="node2" class="node">
<title>AppModule</title>
<polygon fill="#8dd3c7" stroke="#000000" points="1569.6571,-339 1566.6571,-343 1545.6571,-343 1542.6571,-339 1486.3429,-339 1486.3429,-303 1569.6571,-303 1569.6571,-339"/>
<text text-anchor="middle" x="1528" y="-316.8" font-family="Times,serif" font-size="14.00" fill="#000000">AppModule</text>
</g>
<!-- AppComponent&#45;&gt;AppModule -->
<g id="edge1" class="edge">
<title>AppComponent&#45;&gt;AppModule</title>
<path fill="none" stroke="#000000" d="M1823.9836,-250C1733.3056,-250 1558.1087,-250 1558.1087,-250 1558.1087,-250 1558.1087,-292.7157 1558.1087,-292.7157"/>
<polygon fill="#000000" stroke="#000000" points="1554.6088,-292.7157 1558.1087,-302.7157 1561.6088,-292.7158 1554.6088,-292.7157"/>
</g>
<!-- AppComponent  -->
<g id="node8" class="node">
<title>AppComponent </title>
<polygon fill="#80b1d3" stroke="#000000" points="1582.439,-404 1473.561,-404 1473.561,-368 1582.439,-368 1582.439,-404"/>
<text text-anchor="middle" x="1528" y="-381.8" font-family="Times,serif" font-size="14.00" fill="#000000">AppComponent </text>
</g>
<!-- AppModule&#45;&gt;AppComponent  -->
<g id="edge7" class="edge">
<title>AppModule&#45;&gt;AppComponent </title>
<path fill="none" stroke="#000000" stroke-dasharray="1,5" d="M1528,-339.1061C1528,-339.1061 1528,-357.991 1528,-357.991"/>
<polygon fill="#000000" stroke="#000000" points="1524.5001,-357.9909 1528,-367.991 1531.5001,-357.991 1524.5001,-357.9909"/>
</g>
<!-- BrowserModule -->
<g id="node3" class="node">
<title>BrowserModule</title>
<polygon fill="#8dd3c7" stroke="#000000" points="1516.4734,-198 1513.4734,-202 1492.4734,-202 1489.4734,-198 1409.5266,-198 1409.5266,-162 1516.4734,-162 1516.4734,-198"/>
<text text-anchor="middle" x="1463" y="-175.8" font-family="Times,serif" font-size="14.00" fill="#000000">BrowserModule</text>
</g>
<!-- BrowserModule&#45;&gt;AppModule -->
<g id="edge2" class="edge">
<title>BrowserModule&#45;&gt;AppModule</title>
<path fill="none" stroke="#000000" d="M1506.3817,-198.1446C1506.3817,-198.1446 1506.3817,-292.925 1506.3817,-292.925"/>
<polygon fill="#000000" stroke="#000000" points="1502.8818,-292.925 1506.3817,-302.925 1509.8818,-292.925 1502.8818,-292.925"/>
</g>
<!-- SharedModule -->
<g id="node4" class="node">
<title>SharedModule</title>
<polygon fill="#8dd3c7" stroke="#000000" points="1391.4231,-198 1388.4231,-202 1367.4231,-202 1364.4231,-198 1292.5769,-198 1292.5769,-162 1391.4231,-162 1391.4231,-198"/>
<text text-anchor="middle" x="1342" y="-175.8" font-family="Times,serif" font-size="14.00" fill="#000000">SharedModule</text>
</g>
<!-- SharedModule&#45;&gt;AppModule -->
<g id="edge3" class="edge">
<title>SharedModule&#45;&gt;AppModule</title>
<path fill="none" stroke="#000000" d="M1391.3179,-186C1397.5068,-186 1401.7204,-186 1401.7204,-186 1401.7204,-186 1401.7204,-321 1401.7204,-321 1401.7204,-321 1476.3014,-321 1476.3014,-321"/>
<polygon fill="#000000" stroke="#000000" points="1476.3014,-324.5001 1486.3014,-321 1476.3013,-317.5001 1476.3014,-324.5001"/>
</g>
<!-- ViewsModule -->
<g id="node5" class="node">
<title>ViewsModule</title>
<polygon fill="#8dd3c7" stroke="#000000" points="1388.8133,-274 1385.8133,-278 1364.8133,-278 1361.8133,-274 1293.1867,-274 1293.1867,-238 1388.8133,-238 1388.8133,-274"/>
<text text-anchor="middle" x="1341" y="-251.8" font-family="Times,serif" font-size="14.00" fill="#000000">ViewsModule</text>
</g>
<!-- SharedModule&#45;&gt;ViewsModule -->
<g id="edge23" class="edge">
<title>SharedModule&#45;&gt;ViewsModule</title>
<path fill="none" stroke="#000000" d="M1341,-198.0109C1341,-198.0109 1341,-227.855 1341,-227.855"/>
<polygon fill="#000000" stroke="#000000" points="1337.5001,-227.8549 1341,-237.855 1344.5001,-227.855 1337.5001,-227.8549"/>
</g>
<!-- ...DIRECTIVES  -->
<g id="node15" class="node">
<title>...DIRECTIVES </title>
<polygon fill="#fb8072" stroke="#000000" points="1397.6486,-122 1286.3514,-122 1286.3514,-86 1397.6486,-86 1397.6486,-122"/>
<text text-anchor="middle" x="1342" y="-99.8" font-family="Times,serif" font-size="14.00" fill="#000000">...DIRECTIVES </text>
</g>
<!-- SharedModule&#45;&gt;...DIRECTIVES  -->
<g id="edge14" class="edge">
<title>SharedModule&#45;&gt;...DIRECTIVES </title>
<path fill="none" stroke="#000000" stroke-dasharray="5,2" d="M1342,-161.9891C1342,-161.9891 1342,-132.145 1342,-132.145"/>
<polygon fill="#000000" stroke="#000000" points="1345.5001,-132.145 1342,-122.145 1338.5001,-132.1451 1345.5001,-132.145"/>
</g>
<!-- ...PIPES  -->
<g id="node16" class="node">
<title>...PIPES </title>
<polygon fill="#fb8072" stroke="#000000" points="1268.0624,-122 1201.9376,-122 1201.9376,-86 1268.0624,-86 1268.0624,-122"/>
<text text-anchor="middle" x="1235" y="-99.8" font-family="Times,serif" font-size="14.00" fill="#000000">...PIPES </text>
</g>
<!-- SharedModule&#45;&gt;...PIPES  -->
<g id="edge15" class="edge">
<title>SharedModule&#45;&gt;...PIPES </title>
<path fill="none" stroke="#000000" stroke-dasharray="5,2" d="M1292.3258,-180C1275.3856,-180 1260.635,-180 1260.635,-180 1260.635,-180 1260.635,-132.0109 1260.635,-132.0109"/>
<polygon fill="#000000" stroke="#000000" points="1264.1351,-132.0109 1260.635,-122.0109 1257.1351,-132.011 1264.1351,-132.0109"/>
</g>
<!-- ...COMPONENTS  -->
<g id="node17" class="node">
<title>...COMPONENTS </title>
<polygon fill="#fb8072" stroke="#000000" points="1183.3781,-122 1058.6219,-122 1058.6219,-86 1183.3781,-86 1183.3781,-122"/>
<text text-anchor="middle" x="1121" y="-99.8" font-family="Times,serif" font-size="14.00" fill="#000000">...COMPONENTS </text>
</g>
<!-- SharedModule&#45;&gt;...COMPONENTS  -->
<g id="edge16" class="edge">
<title>SharedModule&#45;&gt;...COMPONENTS </title>
<path fill="none" stroke="#000000" stroke-dasharray="5,2" d="M1329.6972,-161.68C1329.6972,-153.2117 1329.6972,-145 1329.6972,-145 1329.6972,-145 1147.2248,-145 1147.2248,-145 1147.2248,-145 1147.2248,-132.1025 1147.2248,-132.1025"/>
<polygon fill="#000000" stroke="#000000" points="1150.7248,-132.1025 1147.2248,-122.1025 1143.7248,-132.1026 1150.7248,-132.1025"/>
</g>
<!-- ...MODULES  -->
<g id="node18" class="node">
<title>...MODULES </title>
<polygon fill="#fb8072" stroke="#000000" points="1040.6528,-122 943.3472,-122 943.3472,-86 1040.6528,-86 1040.6528,-122"/>
<text text-anchor="middle" x="992" y="-99.8" font-family="Times,serif" font-size="14.00" fill="#000000">...MODULES </text>
</g>
<!-- SharedModule&#45;&gt;...MODULES  -->
<g id="edge17" class="edge">
<title>SharedModule&#45;&gt;...MODULES </title>
<path fill="none" stroke="#000000" stroke-dasharray="5,2" d="M1317.3945,-161.7985C1317.3945,-155.972 1317.3945,-151 1317.3945,-151 1317.3945,-151 992,-151 992,-151 992,-151 992,-132.037 992,-132.037"/>
<polygon fill="#000000" stroke="#000000" points="995.5001,-132.037 992,-122.037 988.5001,-132.037 995.5001,-132.037"/>
</g>
<!-- ViewsModule&#45;&gt;AppModule -->
<g id="edge4" class="edge">
<title>ViewsModule&#45;&gt;AppModule</title>
<path fill="none" stroke="#000000" d="M1388.8552,-262C1434.4792,-262 1496.2768,-262 1496.2768,-262 1496.2768,-262 1496.2768,-292.9775 1496.2768,-292.9775"/>
<polygon fill="#000000" stroke="#000000" points="1492.7769,-292.9774 1496.2768,-302.9775 1499.7769,-292.9775 1492.7769,-292.9774"/>
</g>
<!-- ArticleListComponent  -->
<g id="node25" class="node">
<title>ArticleListComponent </title>
<polygon fill="#fb8072" stroke="#000000" points="507.9798,-198 362.0202,-198 362.0202,-162 507.9798,-162 507.9798,-198"/>
<text text-anchor="middle" x="435" y="-175.8" font-family="Times,serif" font-size="14.00" fill="#000000">ArticleListComponent </text>
</g>
<!-- ViewsModule&#45;&gt;ArticleListComponent  -->
<g id="edge25" class="edge">
<title>ViewsModule&#45;&gt;ArticleListComponent </title>
<path fill="none" stroke="#000000" stroke-dasharray="5,2" d="M1293.2476,-262C1106.387,-262 435,-262 435,-262 435,-262 435,-208.1985 435,-208.1985"/>
<polygon fill="#000000" stroke="#000000" points="438.5001,-208.1984 435,-198.1985 431.5001,-208.1985 438.5001,-208.1984"/>
</g>
<!-- ArticleDetailComponent  -->
<g id="node26" class="node">
<title>ArticleDetailComponent </title>
<polygon fill="#fb8072" stroke="#000000" points="343.9082,-198 186.0918,-198 186.0918,-162 343.9082,-162 343.9082,-198"/>
<text text-anchor="middle" x="265" y="-175.8" font-family="Times,serif" font-size="14.00" fill="#000000">ArticleDetailComponent </text>
</g>
<!-- ViewsModule&#45;&gt;ArticleDetailComponent  -->
<g id="edge26" class="edge">
<title>ViewsModule&#45;&gt;ArticleDetailComponent </title>
<path fill="none" stroke="#000000" stroke-dasharray="5,2" d="M1293.0273,-266C1084.2217,-266 265,-266 265,-266 265,-266 265,-208.2384 265,-208.2384"/>
<polygon fill="#000000" stroke="#000000" points="268.5001,-208.2384 265,-198.2384 261.5001,-208.2384 268.5001,-208.2384"/>
</g>
<!-- ContactUsComponent  -->
<g id="node27" class="node">
<title>ContactUsComponent </title>
<polygon fill="#fb8072" stroke="#000000" points="167.9306,-198 24.0694,-198 24.0694,-162 167.9306,-162 167.9306,-198"/>
<text text-anchor="middle" x="96" y="-175.8" font-family="Times,serif" font-size="14.00" fill="#000000">ContactUsComponent </text>
</g>
<!-- ViewsModule&#45;&gt;ContactUsComponent  -->
<g id="edge27" class="edge">
<title>ViewsModule&#45;&gt;ContactUsComponent </title>
<path fill="none" stroke="#000000" stroke-dasharray="5,2" d="M1293.3368,-270C1065.2276,-270 96,-270 96,-270 96,-270 96,-208.2128 96,-208.2128"/>
<polygon fill="#000000" stroke="#000000" points="99.5001,-208.2128 96,-198.2128 92.5001,-208.2129 99.5001,-208.2128"/>
</g>
<!-- AppRoutingModule -->
<g id="node6" class="node">
<title>AppRoutingModule</title>
<polygon fill="#8dd3c7" stroke="#000000" points="1800.2744,-198 1797.2744,-202 1776.2744,-202 1773.2744,-198 1671.7256,-198 1671.7256,-162 1800.2744,-162 1800.2744,-198"/>
<text text-anchor="middle" x="1736" y="-175.8" font-family="Times,serif" font-size="14.00" fill="#000000">AppRoutingModule</text>
</g>
<!-- AppRoutingModule&#45;&gt;AppModule -->
<g id="edge5" class="edge">
<title>AppRoutingModule&#45;&gt;AppModule</title>
<path fill="none" stroke="#000000" d="M1736,-198.1446C1736,-236.2265 1736,-321 1736,-321 1736,-321 1580.0919,-321 1580.0919,-321"/>
<polygon fill="#000000" stroke="#000000" points="1580.0919,-317.5001 1570.0919,-321 1580.0919,-324.5001 1580.0919,-317.5001"/>
</g>
<!-- RouterModule  -->
<g id="node10" class="node">
<title>RouterModule </title>
<polygon fill="#fb8072" stroke="#000000" points="2071.6523,-274 1970.3477,-274 1970.3477,-238 2071.6523,-238 2071.6523,-274"/>
<text text-anchor="middle" x="2021" y="-251.8" font-family="Times,serif" font-size="14.00" fill="#000000">RouterModule </text>
</g>
<!-- AppRoutingModule&#45;&gt;RouterModule  -->
<g id="edge9" class="edge">
<title>AppRoutingModule&#45;&gt;RouterModule </title>
<path fill="none" stroke="#000000" stroke-dasharray="5,2" d="M1800.3149,-186C1884.3727,-186 2021,-186 2021,-186 2021,-186 2021,-227.9733 2021,-227.9733"/>
<polygon fill="#000000" stroke="#000000" points="2017.5001,-227.9732 2021,-237.9733 2024.5001,-227.9733 2017.5001,-227.9732"/>
</g>
<!-- HttpClientModule -->
<g id="node7" class="node">
<title>HttpClientModule</title>
<polygon fill="#8dd3c7" stroke="#000000" points="1653.1611,-198 1650.1611,-202 1629.1611,-202 1626.1611,-198 1534.8389,-198 1534.8389,-162 1653.1611,-162 1653.1611,-198"/>
<text text-anchor="middle" x="1594" y="-175.8" font-family="Times,serif" font-size="14.00" fill="#000000">HttpClientModule</text>
</g>
<!-- HttpClientModule&#45;&gt;AppModule -->
<g id="edge6" class="edge">
<title>HttpClientModule&#45;&gt;AppModule</title>
<path fill="none" stroke="#000000" d="M1546.3892,-198.1446C1546.3892,-198.1446 1546.3892,-292.925 1546.3892,-292.925"/>
<polygon fill="#000000" stroke="#000000" points="1542.8893,-292.925 1546.3892,-302.925 1549.8893,-292.925 1542.8893,-292.925"/>
</g>
<!-- RouterModule.forRoot(args) -->
<g id="node9" class="node">
<title>RouterModule.forRoot(args)</title>
<polygon fill="#8dd3c7" stroke="#000000" points="2273.8419,-274 2270.8419,-278 2249.8419,-278 2246.8419,-274 2096.1581,-274 2096.1581,-238 2273.8419,-238 2273.8419,-274"/>
<text text-anchor="middle" x="2185" y="-251.8" font-family="Times,serif" font-size="14.00" fill="#000000">RouterModule.forRoot(args)</text>
</g>
<!-- RouterModule.forRoot(args)&#45;&gt;AppRoutingModule -->
<g id="edge8" class="edge">
<title>RouterModule.forRoot(args)&#45;&gt;AppRoutingModule</title>
<path fill="none" stroke="#000000" d="M2185,-237.8015C2185,-213.6437 2185,-174 2185,-174 2185,-174 1810.3308,-174 1810.3308,-174"/>
<polygon fill="#000000" stroke="#000000" points="1810.3308,-170.5001 1800.3308,-174 1810.3307,-177.5001 1810.3308,-170.5001"/>
</g>
<!-- ...DIRECTIVES -->
<g id="node11" class="node">
<title>...DIRECTIVES</title>
<polygon fill="#ffffb3" stroke="#000000" points="1869.1481,-122 1760.8519,-122 1760.8519,-86 1869.1481,-86 1869.1481,-122"/>
<text text-anchor="middle" x="1815" y="-99.8" font-family="Times,serif" font-size="14.00" fill="#000000">...DIRECTIVES</text>
</g>
<!-- ...DIRECTIVES&#45;&gt;SharedModule -->
<g id="edge10" class="edge">
<title>...DIRECTIVES&#45;&gt;SharedModule</title>
<path fill="none" stroke="#000000" d="M1780.6566,-122.4218C1780.6566,-131.2791 1780.6566,-140 1780.6566,-140 1780.6566,-140 1378.9083,-140 1378.9083,-140 1378.9083,-140 1378.9083,-151.8726 1378.9083,-151.8726"/>
<polygon fill="#000000" stroke="#000000" points="1375.4084,-151.8725 1378.9083,-161.8726 1382.4084,-151.8726 1375.4084,-151.8725"/>
</g>
<!-- ...PIPES -->
<g id="node12" class="node">
<title>...PIPES</title>
<polygon fill="#ffffb3" stroke="#000000" points="1742.561,-122 1679.439,-122 1679.439,-86 1742.561,-86 1742.561,-122"/>
<text text-anchor="middle" x="1711" y="-99.8" font-family="Times,serif" font-size="14.00" fill="#000000">...PIPES</text>
</g>
<!-- ...PIPES&#45;&gt;SharedModule -->
<g id="edge11" class="edge">
<title>...PIPES&#45;&gt;SharedModule</title>
<path fill="none" stroke="#000000" d="M1711,-122.1432C1711,-128.4611 1711,-134 1711,-134 1711,-134 1366.6056,-134 1366.6056,-134 1366.6056,-134 1366.6056,-151.8196 1366.6056,-151.8196"/>
<polygon fill="#000000" stroke="#000000" points="1363.1056,-151.8195 1366.6056,-161.8196 1370.1056,-151.8196 1363.1056,-151.8195"/>
</g>
<!-- ...COMPONENTS -->
<g id="node13" class="node">
<title>...COMPONENTS</title>
<polygon fill="#ffffb3" stroke="#000000" points="1661.8786,-122 1540.1214,-122 1540.1214,-86 1661.8786,-86 1661.8786,-122"/>
<text text-anchor="middle" x="1601" y="-99.8" font-family="Times,serif" font-size="14.00" fill="#000000">...COMPONENTS</text>
</g>
<!-- ...COMPONENTS&#45;&gt;SharedModule -->
<g id="edge12" class="edge">
<title>...COMPONENTS&#45;&gt;SharedModule</title>
<path fill="none" stroke="#000000" d="M1596.8207,-122.1903C1596.8207,-125.5376 1596.8207,-128 1596.8207,-128 1596.8207,-128 1354.3028,-128 1354.3028,-128 1354.3028,-128 1354.3028,-151.8129 1354.3028,-151.8129"/>
<polygon fill="#000000" stroke="#000000" points="1350.8029,-151.8129 1354.3028,-161.8129 1357.8029,-151.813 1350.8029,-151.8129"/>
</g>
<!-- ...MODULES -->
<g id="node14" class="node">
<title>...MODULES</title>
<polygon fill="#8dd3c7" stroke="#000000" points="1516.1523,-122 1513.1523,-126 1492.1523,-126 1489.1523,-122 1421.8477,-122 1421.8477,-86 1516.1523,-86 1516.1523,-122"/>
<text text-anchor="middle" x="1469" y="-99.8" font-family="Times,serif" font-size="14.00" fill="#000000">...MODULES</text>
</g>
<!-- ...MODULES&#45;&gt;SharedModule -->
<g id="edge13" class="edge">
<title>...MODULES&#45;&gt;SharedModule</title>
<path fill="none" stroke="#000000" d="M1421.6111,-104C1412.4411,-104 1405.6169,-104 1405.6169,-104 1405.6169,-104 1405.6169,-174 1405.6169,-174 1405.6169,-174 1401.4982,-174 1401.4982,-174"/>
<polygon fill="#000000" stroke="#000000" points="1401.4983,-170.5001 1391.4982,-174 1401.4982,-177.5001 1401.4983,-170.5001"/>
</g>
<!-- ...SERVICES -->
<g id="node19" class="node">
<title>...SERVICES</title>
<ellipse fill="#fdb462" stroke="#000000" cx="855" cy="-104" rx="63.7627" ry="18"/>
<text text-anchor="middle" x="855" y="-99.8" font-family="Times,serif" font-size="14.00" fill="#000000">...SERVICES</text>
</g>
<!-- ...SERVICES&#45;&gt;SharedModule -->
<g id="edge18" class="edge">
<title>...SERVICES&#45;&gt;SharedModule</title>
<path fill="none" stroke="#000000" d="M855,-122.2396C855,-137.5706 855,-157 855,-157 855,-157 1305.0917,-157 1305.0917,-157 1305.0917,-157 1305.0917,-157.4878 1305.0917,-157.4878"/>
<polygon fill="#000000" stroke="#000000" points="1301.5919,-151.8776 1305.0917,-161.8777 1308.5919,-151.8778 1301.5919,-151.8776"/>
</g>
<!-- ArticleListComponent -->
<g id="node20" class="node">
<title>ArticleListComponent</title>
<polygon fill="#ffffb3" stroke="#000000" points="1252.979,-198 1111.021,-198 1111.021,-162 1252.979,-162 1252.979,-198"/>
<text text-anchor="middle" x="1182" y="-175.8" font-family="Times,serif" font-size="14.00" fill="#000000">ArticleListComponent</text>
</g>
<!-- ArticleListComponent&#45;&gt;ViewsModule -->
<g id="edge19" class="edge">
<title>ArticleListComponent&#45;&gt;ViewsModule</title>
<path fill="none" stroke="#000000" d="M1182,-198.2667C1182,-216.5552 1182,-242 1182,-242 1182,-242 1283.2948,-242 1283.2948,-242"/>
<polygon fill="#000000" stroke="#000000" points="1283.2948,-245.5001 1293.2948,-242 1283.2947,-238.5001 1283.2948,-245.5001"/>
</g>
<!-- ArticleDetailComponent -->
<g id="node21" class="node">
<title>ArticleDetailComponent</title>
<polygon fill="#ffffb3" stroke="#000000" points="1093.4087,-198 938.5913,-198 938.5913,-162 1093.4087,-162 1093.4087,-198"/>
<text text-anchor="middle" x="1016" y="-175.8" font-family="Times,serif" font-size="14.00" fill="#000000">ArticleDetailComponent</text>
</g>
<!-- ArticleDetailComponent&#45;&gt;ViewsModule -->
<g id="edge20" class="edge">
<title>ArticleDetailComponent&#45;&gt;ViewsModule</title>
<path fill="none" stroke="#000000" d="M1016,-198.0348C1016,-217.5762 1016,-246 1016,-246 1016,-246 1283.0451,-246 1283.0451,-246"/>
<polygon fill="#000000" stroke="#000000" points="1283.0452,-249.5001 1293.0451,-246 1283.0451,-242.5001 1283.0452,-249.5001"/>
</g>
<!-- ContactUsComponent -->
<g id="node22" class="node">
<title>ContactUsComponent</title>
<polygon fill="#ffffb3" stroke="#000000" points="921.4313,-198 780.5687,-198 780.5687,-162 921.4313,-162 921.4313,-198"/>
<text text-anchor="middle" x="851" y="-175.8" font-family="Times,serif" font-size="14.00" fill="#000000">ContactUsComponent</text>
</g>
<!-- ContactUsComponent&#45;&gt;ViewsModule -->
<g id="edge21" class="edge">
<title>ContactUsComponent&#45;&gt;ViewsModule</title>
<path fill="none" stroke="#000000" d="M851,-198.0267C851,-218.7672 851,-250 851,-250 851,-250 1283.1246,-250 1283.1246,-250"/>
<polygon fill="#000000" stroke="#000000" points="1283.1246,-253.5001 1293.1246,-250 1283.1245,-246.5001 1283.1246,-253.5001"/>
</g>
<!-- CommonModule -->
<g id="node23" class="node">
<title>CommonModule</title>
<polygon fill="#8dd3c7" stroke="#000000" points="756.6681,-198 753.6681,-202 732.6681,-202 729.6681,-198 645.3319,-198 645.3319,-162 756.6681,-162 756.6681,-198"/>
<text text-anchor="middle" x="701" y="-175.8" font-family="Times,serif" font-size="14.00" fill="#000000">CommonModule</text>
</g>
<!-- CommonModule&#45;&gt;ViewsModule -->
<g id="edge22" class="edge">
<title>CommonModule&#45;&gt;ViewsModule</title>
<path fill="none" stroke="#000000" d="M701,-198.2921C701,-220.2057 701,-254 701,-254 701,-254 1283.1577,-254 1283.1577,-254"/>
<polygon fill="#000000" stroke="#000000" points="1283.1578,-257.5001 1293.1577,-254 1283.1577,-250.5001 1283.1578,-257.5001"/>
</g>
<!-- FormsModule -->
<g id="node24" class="node">
<title>FormsModule</title>
<polygon fill="#8dd3c7" stroke="#000000" points="627.8288,-198 624.8288,-202 603.8288,-202 600.8288,-198 532.1712,-198 532.1712,-162 627.8288,-162 627.8288,-198"/>
<text text-anchor="middle" x="580" y="-175.8" font-family="Times,serif" font-size="14.00" fill="#000000">FormsModule</text>
</g>
<!-- FormsModule&#45;&gt;ViewsModule -->
<g id="edge24" class="edge">
<title>FormsModule&#45;&gt;ViewsModule</title>
<path fill="none" stroke="#000000" d="M580,-198.0908C580,-221.1328 580,-258 580,-258 580,-258 1283.1078,-258 1283.1078,-258"/>
<polygon fill="#000000" stroke="#000000" points="1283.1078,-261.5001 1293.1078,-258 1283.1077,-254.5001 1283.1078,-261.5001"/>
</g>
</g>
</svg>
